<?xml version="1.0" standalone="no"?>
<!DOCTYPE svg PUBLIC "-//W3C//DTD SVG 20010904//EN"
 "http://www.w3.org/TR/2001/REC-SVG-20010904/DTD/svg10.dtd">
<svg version="1.0" xmlns="http://www.w3.org/2000/svg"
 width="512.000000pt" height="512.000000pt" viewBox="0 0 512.000000 512.000000"
 preserveAspectRatio="xMidYMid meet">

<g transform="translate(0.000000,512.000000) scale(0.100000,-0.100000)"
fill="#000000" stroke="none">
<path d="M213 4339 c-74 -29 -144 -95 -179 -171 l-29 -63 -3 -895 c-1 -492 0
-905 3 -918 3 -12 14 -31 25 -42 20 -20 44 -20 2530 -20 2486 0 2510 0 2530
20 11 11 22 30 25 42 3 13 4 426 3 918 l-3 895 -29 63 c-36 77 -105 143 -182
171 -55 21 -59 21 -2347 20 -2267 0 -2293 0 -2344 -20z m4537 -215 c0 -70 -2
-78 -29 -105 l-29 -29 -2132 0 -2132 0 -29 29 c-27 27 -29 35 -29 105 l0 76
2190 0 2190 0 0 -76z m-4471 -131 c22 -44 52 -73 101 -99 34 -18 105 -19 2180
-19 l2145 0 40 22 c78 42 113 101 122 204 l6 70 25 -23 c54 -50 52 -23 52
-918 l0 -830 -39 0 -39 0 -4 243 -3 242 -28 48 c-16 26 -47 60 -70 75 l-42 27
-2165 0 -2165 0 -42 -27 c-23 -15 -54 -49 -70 -75 l-28 -48 -3 -242 -4 -243
-39 0 -39 0 0 829 c0 562 3 839 11 858 5 15 22 41 37 56 l27 28 7 -70 c4 -39
16 -88 27 -108z m4414 -1074 c31 -16 57 -50 57 -76 l0 -23 -2190 0 -2190 0 0
23 c0 25 25 59 55 75 29 16 4237 17 4268 1z m57 -274 l0 -55 -2190 0 -2190 0
0 55 0 55 2190 0 2190 0 0 -55z m0 -205 l0 -40 -2190 0 -2190 0 0 40 0 40
2190 0 2190 0 0 -40z"/>
<path d="M2272 3254 c-17 -12 -22 -24 -20 -47 5 -53 24 -57 308 -57 284 0 303
4 308 57 6 60 -9 63 -308 63 -227 0 -269 -2 -288 -16z"/>
<path d="M4238 3259 c-10 -5 -23 -19 -29 -30 -24 -45 52 -94 89 -57 20 20 14
65 -10 82 -26 19 -27 19 -50 5z"/>
<path d="M4493 3260 c-31 -13 -40 -55 -18 -80 20 -22 65 -26 83 -8 20 20 14
65 -10 82 -25 18 -25 18 -55 6z"/>
<path d="M2008 1923 c-28 -33 -69 -153 -80 -236 -15 -114 5 -223 65 -354 76
-166 85 -287 32 -428 -39 -103 -39 -104 -20 -125 26 -29 71 -26 91 5 37 57 66
159 71 255 6 110 -6 185 -43 273 -14 34 -37 87 -50 119 -49 114 -48 268 1 376
14 30 25 65 25 77 0 49 -61 73 -92 38z"/>
<path d="M2521 1921 c-44 -44 -83 -191 -82 -311 0 -101 16 -167 70 -287 52
-116 61 -153 61 -245 0 -74 -16 -144 -53 -229 -22 -50 -5 -84 43 -84 32 0 38
5 62 51 40 73 59 157 59 259 0 117 -11 164 -74 304 l-52 116 0 120 c0 110 3
126 29 190 33 78 35 104 10 122 -25 18 -51 16 -73 -6z"/>
<path d="M3044 1932 c-20 -13 -64 -110 -79 -174 -19 -82 -19 -208 0 -283 9
-33 33 -98 55 -145 51 -112 62 -157 61 -256 0 -64 -6 -99 -26 -156 -46 -126
-43 -158 15 -158 39 0 64 35 96 134 50 153 35 326 -42 478 -76 151 -83 285
-24 435 31 79 32 84 16 108 -16 24 -49 33 -72 17z"/>
</g>
</svg>
