<?xml version="1.0" standalone="no"?>
<!DOCTYPE svg PUBLIC "-//W3C//DTD SVG 20010904//EN"
 "http://www.w3.org/TR/2001/REC-SVG-20010904/DTD/svg10.dtd">
<svg version="1.0" xmlns="http://www.w3.org/2000/svg"
 width="512.000000pt" height="512.000000pt" viewBox="0 0 512.000000 512.000000"
 preserveAspectRatio="xMidYMid meet">

<g transform="translate(0.000000,512.000000) scale(0.100000,-0.100000)"
fill="#000000" stroke="none">
<path d="M2160 5033 c-458 -43 -831 -161 -1193 -375 -71 -43 -87 -61 -87 -100
0 -47 25 -65 157 -109 109 -36 134 -48 169 -83 40 -39 64 -93 64 -142 0 -12
-10 -53 -21 -90 -17 -54 -20 -86 -17 -147 5 -77 8 -85 121 -312 l116 -234 -53
-15 c-202 -59 -283 -309 -149 -465 18 -22 104 -96 191 -165 l157 -126 34 -100
c19 -55 58 -150 87 -211 30 -61 54 -113 54 -115 0 -1 -172 -4 -382 -6 l-383
-3 -67 -32 c-93 -44 -151 -100 -196 -191 l-37 -76 -3 -208 -4 -209 -59 -30
c-142 -71 -274 -181 -370 -307 -97 -129 -174 -312 -198 -479 -6 -39 -11 -185
-11 -323 l0 -251 25 -24 24 -25 2431 0 2431 0 25 25 26 26 -4 292 c-4 277 -6
297 -31 392 -77 292 -276 539 -544 673 l-61 31 -4 209 -3 208 -37 76 c-45 91
-103 147 -196 191 l-67 32 -382 3 c-211 2 -383 6 -383 10 0 4 7 18 15 30 23
31 108 234 136 319 l23 72 158 126 c183 147 219 185 243 261 52 165 -45 331
-218 375 -26 6 -47 14 -47 17 0 4 43 126 96 271 53 146 102 298 110 339 87
456 -225 899 -686 972 -59 9 -909 12 -1000 3z m1013 -169 c89 -20 217 -80 279
-132 226 -189 303 -475 205 -757 -52 -148 -66 -182 -66 -164 -2 38 -54 197
-86 260 -45 91 -249 395 -270 403 -41 15 -67 2 -191 -97 -71 -56 -150 -114
-175 -129 -85 -50 -189 -78 -327 -88 -139 -10 -185 -18 -276 -50 -84 -29 -134
-58 -435 -259 -146 -98 -272 -181 -278 -185 -9 -5 -36 39 -89 146 -71 144 -75
156 -71 208 2 30 12 86 22 124 16 58 17 79 8 132 -6 35 -22 85 -34 111 -31 65
-108 139 -175 170 -65 30 -72 22 85 93 229 103 514 184 741 209 52 6 109 13
125 15 17 1 234 4 483 5 381 1 464 -2 525 -15z m100 -719 c140 -214 167 -303
167 -555 l0 -150 -375 0 -376 0 -24 -25 c-21 -20 -25 -34 -25 -80 l0 -55 -80
0 -80 0 0 55 c0 46 -4 60 -25 80 l-24 25 -376 0 -375 0 0 58 0 59 273 181
c149 100 297 193 329 207 73 33 175 55 263 55 183 1 372 73 536 204 52 41 96
75 99 75 3 1 45 -60 93 -134z m-1749 -952 c4 -49 11 -125 17 -171 6 -46 9 -85
7 -87 -8 -9 -154 117 -171 147 -46 83 19 195 114 197 26 1 26 0 33 -86z m316
-49 c0 -170 9 -204 75 -269 63 -64 100 -75 247 -75 146 0 192 15 251 80 49 55
67 103 67 184 l0 56 80 0 80 0 0 -56 c0 -87 18 -133 75 -189 63 -64 100 -75
247 -75 146 0 192 15 251 80 57 64 67 101 67 264 l0 136 81 0 81 0 -7 -92
c-14 -203 -57 -406 -127 -598 -31 -86 -111 -258 -148 -317 l-20 -33 -580 0
-580 0 -21 33 c-34 54 -114 227 -147 317 -68 185 -113 394 -127 598 l-7 92 81
0 81 0 0 -136z m480 1 c0 -131 -1 -137 -25 -160 -23 -24 -31 -25 -135 -25
-104 0 -112 1 -135 25 -24 23 -25 29 -25 160 l0 135 160 0 160 0 0 -135z m800
0 c0 -131 -1 -137 -25 -160 -23 -24 -31 -25 -135 -25 -104 0 -112 1 -135 25
-24 23 -25 29 -25 160 l0 135 160 0 160 0 0 -135z m568 115 c66 -40 89 -114
55 -178 -17 -30 -162 -156 -171 -147 -2 2 1 41 6 87 6 46 14 122 18 171 6 86
7 87 33 87 14 0 41 -9 59 -20z m386 -1192 c55 -16 138 -99 154 -154 9 -31 12
-246 12 -858 l0 -816 -1680 0 -1680 0 0 816 c0 612 3 827 12 858 15 51 99 137
148 153 53 17 2978 17 3034 1z m-3354 -1278 l0 -550 -241 0 -241 0 5 232 c4
201 7 244 26 313 47 169 149 331 277 439 54 46 157 115 172 116 1 0 2 -247 2
-550z m3761 505 c136 -88 267 -244 326 -388 57 -139 65 -186 70 -434 l5 -233
-241 0 -241 0 0 550 c0 303 3 550 6 550 3 0 37 -20 75 -45z"/>
<path d="M1847 1802 c-150 -151 -167 -172 -167 -202 0 -30 17 -51 170 -204
l170 -171 57 57 58 58 -130 130 -130 130 128 128 c70 70 127 132 127 138 0 13
-92 104 -106 104 -5 0 -85 -76 -177 -168z"/>
<path d="M3037 1922 c-26 -26 -47 -52 -47 -57 0 -5 57 -67 127 -137 l128 -128
-130 -130 -130 -130 58 -58 57 -57 170 171 c153 153 170 174 170 204 0 30 -17
51 -167 202 -92 92 -172 168 -178 168 -6 0 -32 -22 -58 -48z"/>
<path d="M2494 1645 c-130 -174 -235 -318 -232 -321 17 -16 113 -84 120 -84
11 0 482 629 476 636 -17 16 -113 84 -120 84 -4 0 -114 -142 -244 -315z"/>
<path d="M2460 1104 c-143 -52 -230 -184 -217 -329 11 -116 67 -201 169 -256
57 -31 70 -34 148 -34 79 0 90 3 150 36 231 127 222 456 -15 568 -65 31 -172
38 -235 15z m163 -158 c104 -43 128 -175 47 -256 -66 -66 -156 -67 -221 -1
-124 123 13 325 174 257z"/>
</g>
</svg>
