<?xml version="1.0" standalone="no"?>
<!DOCTYPE svg PUBLIC "-//W3C//DTD SVG 20010904//EN"
 "http://www.w3.org/TR/2001/REC-SVG-20010904/DTD/svg10.dtd">
<svg version="1.0" xmlns="http://www.w3.org/2000/svg"
 width="512.000000pt" height="512.000000pt" viewBox="0 0 512.000000 512.000000"
 preserveAspectRatio="xMidYMid meet">

<g transform="translate(0.000000,512.000000) scale(0.100000,-0.100000)"
fill="#000000" stroke="none">
<path d="M985 4935 l-25 -24 0 -831 0 -831 25 -24 c15 -16 36 -25 55 -25 19 0
40 9 55 25 l25 24 0 776 0 775 1223 0 1222 0 480 -480 480 -480 -423 0 -422 0
0 335 0 336 -25 24 c-15 16 -36 25 -55 25 -19 0 -40 -9 -55 -25 l-25 -24 0
-391 0 -391 25 -24 24 -25 536 0 535 0 0 -1680 0 -1680 -1760 0 -1760 0 0 135
c0 131 -1 137 -25 160 -32 33 -78 33 -110 0 -25 -24 -25 -26 -25 -215 0 -189
0 -191 25 -215 l24 -25 1871 0 1871 0 24 25 25 24 0 1793 0 1793 -583 582
-582 583 -1313 0 -1313 0 -24 -25z"/>
<path d="M1705 4135 c-16 -15 -25 -36 -25 -55 0 -19 9 -40 25 -55 l24 -25 791
0 791 0 24 25 c16 15 25 36 25 55 0 19 -9 40 -25 55 l-24 25 -791 0 -791 0
-24 -25z"/>
<path d="M2265 3335 c-16 -15 -25 -36 -25 -55 0 -19 9 -40 25 -55 l24 -25 831
0 831 0 24 25 c16 15 25 36 25 55 0 19 -9 40 -25 55 l-24 25 -831 0 -831 0
-24 -25z"/>
<path d="M1260 3025 c-351 -56 -660 -285 -824 -612 -212 -424 -126 -943 214
-1283 344 -343 850 -426 1285 -210 229 114 391 276 505 505 103 208 139 419
110 642 -19 135 -35 163 -94 163 -38 0 -55 -10 -71 -40 -12 -23 -12 -39 2
-116 18 -104 13 -272 -12 -373 -42 -174 -124 -319 -255 -451 -137 -139 -280
-221 -466 -267 -98 -24 -324 -24 -424 0 -364 88 -636 359 -727 723 -24 95 -24
333 0 428 46 182 128 328 261 462 134 133 280 215 462 261 95 24 333 24 427 0
115 -29 227 -79 326 -146 110 -73 141 -80 178 -37 46 54 25 97 -87 171 -242
161 -528 224 -810 180z"/>
<path d="M2265 3015 c-16 -15 -25 -36 -25 -55 0 -19 9 -40 25 -55 l24 -25 831
0 831 0 24 25 c16 15 25 36 25 55 0 19 -9 40 -25 55 l-24 25 -831 0 -831 0
-24 -25z"/>
<path d="M2585 2695 c-16 -15 -25 -36 -25 -55 0 -19 9 -40 25 -55 l24 -25 671
0 671 0 24 25 c33 32 33 78 0 110 l-24 25 -671 0 -671 0 -24 -25z"/>
<path d="M2261 2533 c-16 -16 -154 -165 -307 -333 -153 -168 -331 -362 -396
-432 l-117 -126 -176 213 c-97 117 -183 216 -191 219 -32 12 -66 5 -89 -19
-51 -50 -44 -61 192 -345 221 -266 239 -283 289 -264 13 5 162 160 330 344
169 184 374 408 455 497 164 179 174 199 124 248 -33 34 -77 33 -114 -2z"/>
<path d="M3801 1504 c-253 -68 -410 -331 -346 -579 67 -256 329 -415 580 -350
256 67 415 329 350 578 -67 259 -333 419 -584 351z m270 -185 c67 -36 98 -68
137 -143 22 -43 26 -64 26 -136 1 -78 -2 -90 -33 -148 -38 -70 -70 -100 -145
-140 -43 -22 -64 -26 -136 -26 -72 0 -93 4 -136 26 -75 40 -107 70 -145 140
-31 58 -34 70 -33 148 0 100 24 160 89 225 100 100 249 121 376 54z"/>
<path d="M2425 935 c-16 -15 -25 -36 -25 -55 0 -19 9 -40 25 -55 l24 -25 351
0 351 0 24 25 c16 15 25 36 25 55 0 19 -9 40 -25 55 l-24 25 -351 0 -351 0
-24 -25z"/>
</g>
</svg>
