<?xml version="1.0" standalone="no"?>
<!DOCTYPE svg PUBLIC "-//W3C//DTD SVG 20010904//EN"
 "http://www.w3.org/TR/2001/REC-SVG-20010904/DTD/svg10.dtd">
<svg version="1.0" xmlns="http://www.w3.org/2000/svg"
 width="512.000000pt" height="512.000000pt" viewBox="0 0 512.000000 512.000000"
 preserveAspectRatio="xMidYMid meet">

<g transform="translate(0.000000,512.000000) scale(0.100000,-0.100000)"
fill="#000000" stroke="none">
<path d="M288 4910 c-52 -16 -98 -52 -126 -98 l-27 -47 0 -2205 c0 -2034 1
-2207 17 -2235 21 -39 64 -82 103 -103 28 -16 167 -17 1741 -17 l1711 0 49 30
c31 20 58 47 74 75 23 41 25 59 30 192 l5 146 212 -168 c117 -92 236 -180 265
-194 234 -113 523 6 616 254 62 168 21 350 -107 473 -73 72 -556 456 -601 479
-37 20 -114 24 -154 9 -22 -9 -34 -3 -103 51 -43 34 -79 62 -81 64 -2 1 13 49
32 105 106 312 90 666 -45 959 l-39 85 -3 645 -2 645 -28 60 c-24 52 -75 107
-365 398 -293 294 -345 342 -402 370 l-65 32 -1340 2 c-737 1 -1352 -2 -1367
-7z m2650 -146 l22 -6 0 -306 0 -305 25 -44 c16 -27 42 -51 68 -65 40 -22 55
-23 347 -28 l305 -5 3 -507 2 -506 -88 87 c-174 172 -400 293 -652 347 -113
24 -325 29 -445 10 -427 -65 -780 -317 -973 -694 -101 -196 -143 -371 -143
-597 -1 -359 133 -678 387 -928 250 -246 560 -371 919 -371 262 0 506 72 710
208 l67 45 81 -65 c81 -65 81 -66 78 -109 -2 -44 25 -125 48 -139 7 -5 11 -68
11 -195 0 -171 -2 -191 -19 -212 l-19 -24 -1676 0 c-1595 0 -1676 1 -1693 18
-17 17 -18 119 -21 2172 -1 1406 1 2162 8 2179 5 15 20 31 32 36 25 10 2578
14 2616 4z m425 -592 c-125 -1 -233 0 -240 2 -10 4 -13 60 -13 243 l0 238 240
-240 240 -240 -227 -3z m-483 -886 c243 -37 450 -139 627 -309 167 -161 263
-326 325 -557 28 -108 36 -364 14 -481 -43 -231 -137 -414 -298 -584 -221
-234 -508 -357 -833 -358 -139 -1 -234 14 -360 54 -370 118 -660 424 -762 805
-24 91 -27 115 -27 289 0 175 2 198 27 288 31 117 109 284 173 375 257 359
684 542 1114 478z m1018 -1852 c31 -26 57 -51 57 -57 0 -12 -206 -276 -216
-277 -4 0 -33 21 -66 48 l-59 47 72 82 c39 45 89 109 110 143 22 33 40 60 42
60 2 0 29 -21 60 -46z m573 -303 c157 -125 295 -242 307 -259 84 -118 70 -285
-32 -388 -85 -85 -223 -113 -327 -67 -41 18 -578 436 -607 472 -7 9 -11 23 -9
32 2 8 80 111 172 227 124 156 174 212 189 212 12 0 142 -97 307 -229z"/>
<path d="M963 4632 c-101 -36 -176 -104 -222 -202 -23 -48 -26 -68 -26 -160 0
-95 3 -110 27 -156 15 -28 39 -65 53 -82 25 -30 26 -52 4 -52 -25 0 -144 -88
-203 -150 -74 -79 -146 -215 -166 -312 -19 -97 -18 -229 3 -261 l17 -27 635 0
635 0 16 25 c13 20 17 47 15 124 -2 120 -19 191 -72 300 -52 105 -170 229
-266 280 -35 17 -63 35 -63 38 0 3 11 19 26 35 14 17 37 54 52 82 24 46 27 61
27 156 0 93 -3 111 -27 162 -34 74 -113 152 -186 186 -76 35 -202 41 -279 14z
m205 -148 c149 -62 190 -257 76 -370 -51 -51 -97 -67 -179 -62 -75 5 -131 37
-172 99 -35 52 -43 140 -19 203 44 115 182 177 294 130z m53 -610 c140 -42
253 -131 316 -250 35 -66 63 -159 63 -211 l0 -33 -515 0 -515 0 0 38 c0 21 7
63 16 93 69 231 259 377 495 378 51 1 107 -5 140 -15z"/>
<path d="M1829 4391 c-17 -13 -23 -29 -23 -56 0 -27 6 -43 23 -56 22 -18 47
-19 430 -19 l408 0 21 23 c29 31 28 72 -3 102 l-24 25 -404 0 c-381 0 -406 -1
-428 -19z"/>
<path d="M1829 3881 c-17 -13 -23 -29 -23 -56 0 -27 6 -43 23 -56 22 -18 47
-19 428 -19 l404 0 24 25 c32 31 33 74 2 103 -23 22 -26 22 -429 22 -382 0
-407 -1 -429 -19z"/>
<path d="M551 2629 c-69 -28 -67 -112 3 -139 17 -6 141 -10 317 -10 318 0 352
5 365 54 11 44 -4 76 -41 92 -27 11 -94 14 -327 13 -163 0 -304 -5 -317 -10z"/>
<path d="M521 2104 c-28 -35 -26 -69 4 -99 l24 -25 321 0 321 0 24 25 c30 30
32 64 4 99 l-20 26 -329 0 -329 0 -20 -26z"/>
<path d="M525 1605 c-30 -30 -32 -64 -4 -99 l20 -26 329 0 329 0 20 26 c28 35
26 69 -4 99 l-24 25 -321 0 -321 0 -24 -25z"/>
<path d="M551 1119 c-64 -25 -70 -104 -10 -134 42 -22 617 -22 659 0 32 17 46
51 36 91 -13 49 -46 54 -368 53 -163 0 -304 -5 -317 -10z"/>
<path d="M2525 3036 c-178 -41 -309 -112 -439 -235 -85 -82 -144 -163 -196
-272 -63 -132 -82 -220 -83 -379 -1 -189 33 -314 127 -475 49 -83 195 -235
281 -290 298 -194 704 -192 1000 6 89 60 227 204 278 290 173 295 166 659 -18
954 -110 177 -309 325 -517 386 -94 27 -341 36 -433 15z m401 -164 c262 -83
451 -282 520 -547 26 -102 25 -275 -4 -378 -97 -345 -418 -576 -772 -554 -118
8 -192 27 -296 78 -373 183 -525 640 -337 1016 96 191 284 340 495 394 97 25
303 20 394 -9z"/>
<path d="M2685 2666 c-11 -7 -49 -72 -83 -143 l-63 -130 -142 -18 c-160 -21
-187 -35 -187 -97 0 -29 13 -45 107 -134 l107 -101 -24 -147 c-22 -132 -23
-150 -10 -173 30 -53 57 -51 192 17 68 34 127 66 132 71 5 5 69 -23 147 -63
129 -67 139 -70 167 -59 53 22 57 51 29 207 l-25 139 109 111 c60 61 109 118
109 127 0 28 -21 64 -44 75 -12 5 -82 18 -155 28 l-133 18 -60 121 c-33 66
-69 130 -81 143 -23 25 -63 29 -92 8z m85 -316 c22 -43 48 -83 57 -88 10 -5
41 -12 68 -16 28 -4 65 -10 84 -13 l33 -6 -67 -63 -68 -63 6 -68 c3 -37 9 -83
13 -101 l7 -34 -81 41 c-45 23 -88 41 -95 41 -8 0 -49 -19 -92 -41 l-78 -41 7
48 c4 27 10 70 13 96 l6 47 -68 71 c-38 38 -65 70 -61 70 29 0 155 23 172 31
11 6 38 46 59 90 22 43 40 79 42 79 1 0 21 -36 43 -80z"/>
</g>
</svg>
