<?xml version="1.0" standalone="no"?>
<!DOCTYPE svg PUBLIC "-//W3C//DTD SVG 20010904//EN"
 "http://www.w3.org/TR/2001/REC-SVG-20010904/DTD/svg10.dtd">
<svg version="1.0" xmlns="http://www.w3.org/2000/svg"
 width="512.000000pt" height="512.000000pt" viewBox="0 0 512.000000 512.000000"
 preserveAspectRatio="xMidYMid meet">

<g transform="translate(0.000000,512.000000) scale(0.100000,-0.100000)"
fill="#000000" stroke="none">
<path d="M185 4695 l-25 -24 0 -1734 0 -1734 23 -21 23 -22 945 -2 944 -3 3
-132 3 -132 -343 -3 c-312 -3 -346 -5 -378 -22 -92 -49 -134 -119 -134 -221 0
-102 42 -172 134 -221 34 -18 82 -19 1180 -19 1098 0 1146 1 1180 19 92 49
134 119 134 221 0 102 -42 172 -134 221 -32 17 -66 19 -378 22 l-343 3 3 132
3 132 944 3 945 2 23 22 23 21 0 1734 0 1734 -25 24 -24 25 -2351 0 -2351 0
-24 -25z m4645 -1505 l0 -1400 -2270 0 -2270 0 0 1400 0 1400 2270 0 2270 0 0
-1400z m0 -1715 l0 -195 -2270 0 -2270 0 0 195 0 195 2270 0 2270 0 0 -195z
m-1932 -452 l3 -133 -341 0 -340 0 0 128 c0 71 3 132 7 135 4 4 155 6 337 5
l331 -3 3 -132z m811 -288 c61 -52 60 -133 -4 -183 l-28 -22 -1118 0 -1117 0
-31 26 c-57 48 -58 125 -1 177 l30 27 1119 0 1119 0 31 -25z"/>
<path d="M1887 4099 c-57 -30 -92 -90 -93 -160 l-1 -58 -259 -232 c-370 -329
-391 -344 -604 -414 -190 -62 -238 -95 -281 -190 -31 -67 -25 -133 26 -286 51
-151 85 -203 158 -241 54 -27 148 -34 209 -15 l47 15 85 -143 c91 -152 117
-181 172 -191 49 -9 189 41 232 82 52 52 46 88 -37 225 l-69 114 53 3 c29 2
203 -6 386 -17 285 -18 335 -23 344 -37 27 -45 60 -74 100 -90 122 -46 255 41
255 168 0 26 -22 108 -57 211 l-57 167 36 33 c136 124 109 408 -56 572 -56 56
-133 91 -186 83 -29 -4 -29 -4 -80 146 -63 184 -83 221 -136 252 -52 31 -132
32 -187 3z m126 -121 c19 -18 75 -170 246 -669 122 -355 221 -657 221 -672 0
-48 -53 -74 -93 -44 -9 7 -111 288 -243 674 -237 692 -240 703 -191 723 32 13
33 12 60 -12z m10 -749 c98 -287 176 -523 174 -525 -2 -2 -145 5 -318 16 -172
11 -352 21 -398 22 l-83 3 -83 241 -83 241 56 41 c32 23 167 140 302 261 135
121 247 220 250 220 3 0 85 -234 183 -520z m338 318 c74 -49 129 -169 129
-279 0 -66 -26 -143 -39 -118 -11 20 -141 399 -141 411 0 15 15 11 51 -14z
m-1227 -429 c59 -160 134 -394 128 -399 -21 -17 -276 -99 -308 -99 -47 0 -98
29 -117 67 -8 15 -31 78 -51 140 -58 180 -41 208 174 283 74 26 140 48 147 49
6 1 18 -18 27 -41z m264 -638 c40 -65 72 -123 71 -127 -2 -7 -85 -43 -100 -43
-3 0 -40 56 -82 125 -49 80 -72 127 -65 131 10 6 85 32 98 33 3 1 38 -53 78
-119z"/>
<path d="M3621 4004 c-27 -34 -26 -50 4 -79 l24 -25 398 0 c445 0 443 0 443
64 0 67 9 66 -443 66 l-406 0 -20 -26z"/>
<path d="M3022 3623 c-34 -30 -37 -59 -8 -88 l25 -25 703 0 c783 0 748 -3 748
65 0 68 35 65 -746 65 -654 0 -703 -1 -722 -17z"/>
<path d="M3032 3240 c-12 -5 -27 -22 -33 -37 -8 -22 -6 -32 9 -52 l19 -26 483
-3 c439 -2 485 -1 502 14 18 17 24 60 10 80 -21 32 -52 34 -509 33 -252 0
-468 -4 -481 -9z"/>
<path d="M4166 3229 c-31 -25 -34 -61 -6 -89 18 -18 33 -20 158 -20 124 0 141
2 156 19 11 12 16 31 14 52 -5 50 -32 59 -174 59 -108 0 -124 -2 -148 -21z"/>
<path d="M3013 2838 c-26 -34 -21 -79 11 -100 6 -4 331 -8 722 -8 676 0 712 1
727 18 21 23 22 66 1 86 -14 14 -94 16 -733 16 -563 0 -721 -3 -728 -12z"/>
<path d="M3024 2452 c-26 -17 -35 -51 -22 -79 16 -33 41 -41 140 -42 112 -1
148 16 148 70 0 49 -25 59 -146 59 -60 0 -114 -4 -120 -8z"/>
<path d="M3416 2438 c-22 -31 -20 -61 5 -84 20 -18 45 -19 498 -22 262 -2 490
0 508 3 42 7 63 29 63 64 0 63 15 61 -548 61 l-511 0 -15 -22z"/>
<path d="M542 1514 c-28 -19 -30 -74 -4 -97 40 -37 122 -7 122 43 0 28 -44 70
-72 70 -13 0 -34 -7 -46 -16z"/>
</g>
</svg>
