<?xml version="1.0" encoding="UTF-8"?>
<!DOCTYPE svg PUBLIC "-//W3C//DTD SVG 1.1//EN" "http://www.w3.org/Graphics/SVG/1.1/DTD/svg11.dtd">
<svg xmlns="http://www.w3.org/2000/svg" version="1.1" width="512px" height="512px" style="shape-rendering:geometricPrecision; text-rendering:geometricPrecision; image-rendering:optimizeQuality; fill-rule:evenodd; clip-rule:evenodd" xmlns:xlink="http://www.w3.org/1999/xlink">
<g><path style="opacity:0.921" fill="#000000" d="M 150.5,72.5 C 177.015,69.3494 189.015,81.0161 186.5,107.5C 232.167,107.5 277.833,107.5 323.5,107.5C 320.994,94.6242 324.66,84.1242 334.5,76C 343.913,72.1714 353.58,71.5047 363.5,74C 371.164,76.998 375.997,82.498 378,90.5C 378.499,96.1569 378.666,101.824 378.5,107.5C 410.393,104.678 430.226,118.678 438,149.5C 438.667,231.5 438.667,313.5 438,395.5C 433.904,416.929 421.404,430.762 400.5,437C 352.198,438.152 303.864,438.652 255.5,438.5C 207.136,438.652 158.802,438.152 110.5,437C 89.5957,430.762 77.0957,416.929 73,395.5C 72.3333,313.5 72.3333,231.5 73,149.5C 80.5803,119.107 100.08,105.107 131.5,107.5C 128.299,90.3092 134.632,78.6426 150.5,72.5 Z M 152.5,85.5 C 158.434,84.8887 164.1,85.722 169.5,88C 171.049,89.214 172.215,90.714 173,92.5C 173.667,107.5 173.667,122.5 173,137.5C 171.271,141.785 168.105,144.285 163.5,145C 156.551,146.572 150.718,144.739 146,139.5C 145.667,138.5 145.333,137.5 145,136.5C 144.333,122.167 144.333,107.833 145,93.5C 146.353,89.6499 148.853,86.9832 152.5,85.5 Z M 344.5,85.5 C 350.434,84.8887 356.1,85.722 361.5,88C 363.049,89.214 364.215,90.714 365,92.5C 365.667,107.5 365.667,122.5 365,137.5C 363.271,141.785 360.105,144.285 355.5,145C 348.551,146.572 342.718,144.739 338,139.5C 337.667,138.5 337.333,137.5 337,136.5C 336.333,122.167 336.333,107.833 337,93.5C 338.353,89.6499 340.853,86.9832 344.5,85.5 Z M 114.5,120.5 C 120.167,120.5 125.833,120.5 131.5,120.5C 128.606,149.775 141.606,161.942 170.5,157C 178.428,154.073 183.594,148.573 186,140.5C 186.5,133.842 186.666,127.175 186.5,120.5C 232.167,120.5 277.833,120.5 323.5,120.5C 320.595,149.763 333.595,161.93 362.5,157C 370.089,153.745 375.256,148.245 378,140.5C 378.5,133.842 378.666,127.175 378.5,120.5C 403.056,117.595 418.556,127.928 425,151.5C 425.5,169.497 425.667,187.497 425.5,205.5C 312.167,205.5 198.833,205.5 85.5,205.5C 85.3334,187.497 85.5001,169.497 86,151.5C 89.4726,135.531 98.9726,125.198 114.5,120.5 Z M 85.5,218.5 C 198.833,218.5 312.167,218.5 425.5,218.5C 425.667,277.168 425.5,335.834 425,394.5C 420.718,411.116 410.218,421.282 393.5,425C 301.5,425.667 209.5,425.667 117.5,425C 100.782,421.282 90.282,411.116 86,394.5C 85.5,335.834 85.3333,277.168 85.5,218.5 Z M 152.5,260.5 C 164.167,260.5 175.833,260.5 187.5,260.5C 187.5,272.167 187.5,283.833 187.5,295.5C 175.833,295.5 164.167,295.5 152.5,295.5C 152.5,283.833 152.5,272.167 152.5,260.5 Z M 238.5,260.5 C 249.833,260.5 261.167,260.5 272.5,260.5C 272.5,272.167 272.5,283.833 272.5,295.5C 261.167,295.5 249.833,295.5 238.5,295.5C 238.5,283.833 238.5,272.167 238.5,260.5 Z M 322.5,260.5 C 334.167,260.5 345.833,260.5 357.5,260.5C 357.5,272.167 357.5,283.833 357.5,295.5C 345.833,295.5 334.167,295.5 322.5,295.5C 322.5,283.833 322.5,272.167 322.5,260.5 Z M 152.5,339.5 C 164.167,339.5 175.833,339.5 187.5,339.5C 187.5,351.167 187.5,362.833 187.5,374.5C 175.833,374.5 164.167,374.5 152.5,374.5C 152.5,362.833 152.5,351.167 152.5,339.5 Z M 238.5,339.5 C 249.833,339.5 261.167,339.5 272.5,339.5C 272.5,351.167 272.5,362.833 272.5,374.5C 261.167,374.5 249.833,374.5 238.5,374.5C 238.5,362.833 238.5,351.167 238.5,339.5 Z"/></g>
<g><path style="opacity:0.92" fill="#000000" d="M 145.5,247.5 C 161.837,247.333 178.17,247.5 194.5,248C 196.421,248.36 198.088,249.194 199.5,250.5C 200.653,268.79 200.82,287.123 200,305.5C 199.167,306.333 198.333,307.167 197.5,308C 179.5,308.667 161.5,308.667 143.5,308C 142.584,307.626 141.75,307.126 141,306.5C 139.374,288.566 139.041,270.566 140,252.5C 141.107,249.887 142.94,248.22 145.5,247.5 Z M 152.5,260.5 C 152.5,272.167 152.5,283.833 152.5,295.5C 164.167,295.5 175.833,295.5 187.5,295.5C 187.5,283.833 187.5,272.167 187.5,260.5C 175.833,260.5 164.167,260.5 152.5,260.5 Z"/></g>
<g><path style="opacity:0.926" fill="#000000" d="M 230.5,247.5 C 247.17,247.333 263.837,247.5 280.5,248C 282.329,248.273 283.829,249.107 285,250.5C 285.667,268.833 285.667,287.167 285,305.5C 284.167,306.333 283.333,307.167 282.5,308C 264.5,308.667 246.5,308.667 228.5,308C 227.667,307.167 226.833,306.333 226,305.5C 225.333,287.167 225.333,268.833 226,250.5C 227.409,249.219 228.909,248.219 230.5,247.5 Z M 238.5,260.5 C 238.5,272.167 238.5,283.833 238.5,295.5C 249.833,295.5 261.167,295.5 272.5,295.5C 272.5,283.833 272.5,272.167 272.5,260.5C 261.167,260.5 249.833,260.5 238.5,260.5 Z"/></g>
<g><path style="opacity:0.921" fill="#000000" d="M 315.5,247.5 C 331.837,247.333 348.17,247.5 364.5,248C 366.101,248.273 367.601,248.773 369,249.5C 370.64,268.076 370.974,286.743 370,305.5C 369.167,306.333 368.333,307.167 367.5,308C 349.5,308.667 331.5,308.667 313.5,308C 311.462,306.764 310.295,304.931 310,302.5C 309.333,286.167 309.333,269.833 310,253.5C 310.683,250.321 312.516,248.321 315.5,247.5 Z M 322.5,260.5 C 322.5,272.167 322.5,283.833 322.5,295.5C 334.167,295.5 345.833,295.5 357.5,295.5C 357.5,283.833 357.5,272.167 357.5,260.5C 345.833,260.5 334.167,260.5 322.5,260.5 Z"/></g>
<g><path style="opacity:0.939" fill="#000000" d="M 142.5,326.5 C 160.836,326.333 179.17,326.5 197.5,327C 198.333,327.833 199.167,328.667 200,329.5C 200.667,347.5 200.667,365.5 200,383.5C 199.167,384.333 198.333,385.167 197.5,386C 179.167,386.667 160.833,386.667 142.5,386C 142,385.5 141.5,385 141,384.5C 139.361,366.591 139.027,348.591 140,330.5C 140.662,329.016 141.496,327.683 142.5,326.5 Z M 152.5,339.5 C 152.5,351.167 152.5,362.833 152.5,374.5C 164.167,374.5 175.833,374.5 187.5,374.5C 187.5,362.833 187.5,351.167 187.5,339.5C 175.833,339.5 164.167,339.5 152.5,339.5 Z"/></g>
<g><path style="opacity:0.945" fill="#000000" d="M 228.5,326.5 C 246.503,326.333 264.503,326.5 282.5,327C 283.308,327.308 283.975,327.808 284.5,328.5C 285.653,346.79 285.82,365.123 285,383.5C 284.626,384.416 284.126,385.25 283.5,386C 264.593,386.825 245.76,386.659 227,385.5C 225.36,366.924 225.026,348.257 226,329.5C 226.698,328.309 227.531,327.309 228.5,326.5 Z M 238.5,339.5 C 238.5,351.167 238.5,362.833 238.5,374.5C 249.833,374.5 261.167,374.5 272.5,374.5C 272.5,362.833 272.5,351.167 272.5,339.5C 261.167,339.5 249.833,339.5 238.5,339.5 Z"/></g>
<g><path style="opacity:0.895" fill="#000000" d="M 369.5,332.5 C 376.825,331.992 379.658,335.326 378,342.5C 365.105,356.064 351.605,368.897 337.5,381C 335.365,381.635 333.365,381.301 331.5,380C 324.364,373.865 317.531,367.365 311,360.5C 308.666,352.166 311.833,348.999 320.5,351C 325.333,355.833 330.167,360.667 335,365.5C 346.699,354.633 358.199,343.633 369.5,332.5 Z"/></g>
</svg>
