<?xml version="1.0" standalone="no"?>
<!DOCTYPE svg PUBLIC "-//W3C//DTD SVG 20010904//EN"
 "http://www.w3.org/TR/2001/REC-SVG-20010904/DTD/svg10.dtd">
<svg version="1.0" xmlns="http://www.w3.org/2000/svg"
 width="512.000000pt" height="512.000000pt" viewBox="0 0 512.000000 512.000000"
 preserveAspectRatio="xMidYMid meet">

<g transform="translate(0.000000,512.000000) scale(0.100000,-0.100000)"
fill="#000000" stroke="none">
<path d="M440 3585 l0 -1535 -145 0 -145 0 0 1138 0 1137 24 50 c21 47 55 84
101 110 17 10 16 14 -5 73 -13 35 -27 65 -32 68 -15 10 -94 -44 -141 -96 -25
-28 -56 -77 -69 -108 l-23 -57 -3 -1459 c-3 -1593 -5 -1521 54 -1622 52 -88
155 -157 261 -174 33 -6 364 -10 761 -10 l702 0 0 -275 0 -275 -133 0 c-156 0
-204 -12 -270 -70 -76 -67 -91 -116 -95 -312 l-4 -168 1282 0 1282 0 -4 168
c-4 196 -19 245 -95 312 -66 58 -114 70 -270 70 l-133 0 0 275 0 275 703 0
c396 0 727 4 760 10 106 17 209 86 261 174 59 101 57 29 54 1622 l-3 1459 -24
60 c-33 82 -124 173 -206 206 l-60 24 -1257 3 -1258 2 0 -75 0 -75 1248 -2
1247 -3 40 -22 c51 -27 79 -57 104 -113 20 -44 21 -59 21 -1183 l0 -1137
-1337 2 -1338 3 -3 1108 -2 1109 -183 304 c-100 167 -185 303 -189 302 -5 -2
-91 -142 -193 -311 l-185 -309 0 -1104 0 -1105 -122 3 -123 3 -3 1533 -2 1532
-425 0 -425 0 0 -1535z m700 -75 l0 -1460 -275 0 -275 0 0 90 0 90 183 2 182
3 3 72 3 73 -183 2 -183 3 -3 72 -3 72 103 3 103 3 0 75 0 75 -103 3 -103 3 3
72 3 72 183 3 183 2 -3 73 -3 72 -182 3 -183 2 0 75 0 75 105 0 106 0 -3 73
-3 72 -102 3 -103 3 0 74 0 75 185 0 186 0 -3 73 -3 72 -182 3 -183 2 0 75 0
75 105 0 106 0 -3 73 -3 72 -102 3 -103 3 0 74 0 75 185 0 185 0 0 75 0 75
-185 0 -185 0 0 75 0 75 105 0 105 0 0 75 0 75 -105 0 -105 0 0 75 0 75 185 0
185 0 0 75 0 75 -185 0 -185 0 0 90 0 90 275 0 275 0 0 -1460z m875 928 c50
-83 91 -156 93 -162 1 -6 -41 -37 -94 -69 l-96 -57 -86 51 c-48 29 -92 56 -99
61 -8 7 16 55 84 169 53 87 98 159 102 159 3 0 47 -69 96 -152z m-193 -404
c49 -30 92 -54 96 -54 4 0 55 29 115 65 l107 64 0 -830 0 -829 -222 2 -223 3
-3 828 -2 828 22 -12 c12 -6 62 -36 110 -65z m318 -1859 l0 -125 -222 2 -223
3 -3 123 -3 122 226 0 225 0 0 -125z m2830 -507 c0 -223 -1 -235 -24 -283 -13
-28 -37 -63 -55 -78 -72 -61 74 -57 -2331 -57 -2405 0 -2259 -4 -2331 57 -18
15 -42 50 -55 78 -23 48 -24 60 -24 283 l0 232 2410 0 2410 0 0 -232z m-1780
-843 l0 -275 -630 0 -630 0 0 275 0 275 630 0 630 0 0 -275z m435 -445 c46
-29 65 -74 65 -159 l0 -71 -1130 0 -1130 0 0 73 c0 83 18 126 65 157 29 19 51
20 1064 20 1019 0 1034 0 1066 -20z"/>
<path d="M1840 3560 l0 -250 75 0 75 0 0 250 0 250 -75 0 -75 0 0 -250z"/>
<path d="M1840 3085 l0 -75 75 0 75 0 0 75 0 75 -75 0 -75 0 0 -75z"/>
<path d="M1840 2735 l0 -125 75 0 75 0 0 125 0 125 -75 0 -75 0 0 -125z"/>
<path d="M2182 1578 l3 -73 73 -3 72 -3 0 76 0 75 -75 0 -76 0 3 -72z"/>
<path d="M2482 1578 l3 -73 75 0 75 0 3 73 3 72 -81 0 -81 0 3 -72z"/>
<path d="M2790 1575 l0 -76 73 3 72 3 3 73 3 72 -76 0 -75 0 0 -75z"/>
<path d="M2450 4285 l0 -75 75 0 75 0 0 -930 0 -930 -75 0 -75 0 0 -75 0 -75
225 0 225 0 0 75 0 75 -75 0 -75 0 0 930 0 930 75 0 75 0 0 75 0 75 -225 0
-225 0 0 -75z"/>
<path d="M3070 3935 l0 -425 875 0 875 0 0 425 0 425 -875 0 -875 0 0 -425z
m1600 0 l0 -275 -725 0 -725 0 0 275 0 275 725 0 725 0 0 -275z"/>
<path d="M3070 3085 l0 -275 400 0 400 0 -2 273 -3 272 -397 3 -398 2 0 -275z
m648 -2 l3 -123 -251 0 -250 0 0 125 0 125 248 -2 247 -3 3 -122z"/>
<path d="M4020 3085 l0 -275 400 0 400 0 0 275 0 275 -400 0 -400 0 0 -275z
m650 0 l0 -125 -250 0 -250 0 0 125 0 125 250 0 250 0 0 -125z"/>
<path d="M3144 2596 c-3 -7 -4 -42 -2 -77 l3 -64 173 -3 172 -2 0 80 0 80
-170 0 c-134 0 -172 -3 -176 -14z"/>
<path d="M3644 2596 c-3 -7 -4 -42 -2 -77 l3 -64 73 -3 72 -3 0 81 0 80 -70 0
c-50 0 -72 -4 -76 -14z"/>
<path d="M4094 2596 c-3 -7 -4 -42 -2 -77 l3 -64 173 -3 172 -2 0 80 0 80
-170 0 c-134 0 -172 -3 -176 -14z"/>
<path d="M4594 2596 c-3 -7 -4 -42 -2 -77 l3 -64 73 -3 72 -3 0 81 0 80 -70 0
c-50 0 -72 -4 -76 -14z"/>
</g>
</svg>
