<?xml version="1.0" standalone="no"?>
<!DOCTYPE svg PUBLIC "-//W3C//DTD SVG 20010904//EN"
 "http://www.w3.org/TR/2001/REC-SVG-20010904/DTD/svg10.dtd">
<svg version="1.0" xmlns="http://www.w3.org/2000/svg"
 width="512.000000pt" height="512.000000pt" viewBox="0 0 512.000000 512.000000"
 preserveAspectRatio="xMidYMid meet">

<g transform="translate(0.000000,512.000000) scale(0.100000,-0.100000)"
fill="#000000" stroke="none">
<path d="M4190 4873 c-8 -3 -23 -12 -32 -21 -17 -14 -18 -57 -18 -639 l0 -623
-137 0 c-112 0 -145 -4 -178 -19 -92 -42 -104 -81 -105 -333 l0 -198 -347 0
c-342 0 -349 -1 -388 -23 -22 -13 -49 -40 -62 -62 -21 -38 -23 -51 -23 -247
l0 -207 -347 -3 c-394 -3 -401 -5 -451 -81 -27 -40 -27 -42 -30 -254 l-3 -213
-342 0 c-325 0 -343 -1 -384 -21 -29 -14 -52 -35 -68 -63 -25 -42 -25 -47 -25
-254 l0 -212 -350 0 c-283 0 -356 -3 -378 -14 -36 -19 -78 -65 -91 -99 -7 -18
-11 -180 -11 -463 l0 -434 -190 0 c-182 0 -190 -1 -210 -22 -37 -40 -22 -98
31 -117 45 -16 4973 -16 5018 0 54 19 69 79 28 117 -22 21 -32 22 -210 22
l-187 0 0 195 c0 195 0 196 -25 220 -29 30 -64 32 -96 6 -23 -19 -24 -24 -29
-218 l-5 -198 -335 0 -335 0 -3 1500 c-1 825 0 1510 3 1523 l5 22 333 -2 332
-3 5 -1206 c5 -1169 6 -1208 24 -1228 26 -29 71 -27 101 4 l25 24 0 1208 c0
1158 -1 1210 -19 1249 -10 23 -36 54 -57 70 -37 29 -40 29 -186 32 l-148 3 0
215 0 214 389 0 390 0 20 26 c12 15 21 35 21 44 0 10 -37 78 -81 151 -45 74
-82 139 -81 144 0 6 36 70 81 144 45 73 81 141 81 151 0 10 -9 29 -21 44 l-20
26 -388 0 -388 0 -6 41 c-8 58 -54 97 -97 82z m700 -279 c0 -3 -25 -47 -55
-98 -30 -50 -55 -101 -55 -112 0 -12 23 -59 51 -105 28 -46 54 -90 56 -96 4
-10 -59 -13 -296 -13 l-301 0 0 215 0 215 300 0 c165 0 300 -3 300 -6z m-1170
-2954 l0 -1250 -335 0 -334 0 -3 536 -3 536 -24 19 c-30 25 -62 24 -95 -2
l-26 -20 -2 -532 -3 -532 -335 0 -335 0 -3 964 c-1 704 1 967 9 977 16 19 638
21 657 2 9 -9 12 -96 12 -329 l0 -318 26 -20 c35 -28 69 -26 99 4 l25 24 0
589 c0 324 3 592 7 595 3 4 154 7 335 7 l328 0 0 -1250z m-1652 -547 l2 -703
-335 0 -335 0 0 145 c0 154 -7 186 -47 204 -34 15 -47 14 -76 -10 -26 -20 -27
-21 -29 -177 l-3 -157 -335 0 -335 0 0 425 0 425 329 3 c257 2 331 -1 338 -10
4 -7 8 -77 8 -155 0 -133 1 -143 22 -163 27 -25 69 -26 99 -1 l24 19 3 419 c1
230 4 424 7 431 3 10 75 12 332 10 l328 -3 3 -702z"/>
</g>
</svg>
