<?xml version="1.0" encoding="UTF-8"?>
<!DOCTYPE svg PUBLIC "-//W3C//DTD SVG 1.1//EN" "http://www.w3.org/Graphics/SVG/1.1/DTD/svg11.dtd">
<svg xmlns="http://www.w3.org/2000/svg" version="1.1" width="512px" height="512px" style="shape-rendering:geometricPrecision; text-rendering:geometricPrecision; image-rendering:optimizeQuality; fill-rule:evenodd; clip-rule:evenodd" xmlns:xlink="http://www.w3.org/1999/xlink">
<g><path style="opacity:0.952" fill="#000000" d="M 236.5,-0.5 C 249.167,-0.5 261.833,-0.5 274.5,-0.5C 329.908,7.11121 373.074,34.1112 404,80.5C 421.551,109.326 430.718,140.66 431.5,174.5C 456.23,177.731 471.73,191.398 478,215.5C 479.637,255.128 479.97,294.795 479,334.5C 476.943,353.539 467.443,367.372 450.5,376C 444.158,378.33 437.825,380.497 431.5,382.5C 430.842,405.299 425.009,426.633 414,446.5C 401.545,463.489 385.045,474.656 364.5,480C 347.431,484.272 330.098,486.438 312.5,486.5C 314.183,498.139 309.85,506.472 299.5,511.5C 274.833,511.5 250.167,511.5 225.5,511.5C 218.79,508.617 214.29,503.617 212,496.5C 211.333,483.167 211.333,469.833 212,456.5C 213.722,448.444 218.556,443.277 226.5,441C 250.167,440.333 273.833,440.333 297.5,441C 309.273,445.363 314.273,453.863 312.5,466.5C 332.422,466.124 351.755,462.624 370.5,456C 391.701,445.777 404.201,428.944 408,405.5C 409.31,397.88 410.143,390.214 410.5,382.5C 404.158,382.666 397.825,382.5 391.5,382C 387.078,381.242 384.245,378.742 383,374.5C 382.333,309.833 382.333,245.167 383,180.5C 384.388,177.055 386.888,174.889 390.5,174C 397.158,173.5 403.825,173.334 410.5,173.5C 407.307,106.841 375.64,59.3415 315.5,31C 247.931,6.76849 189.098,20.2685 139,71.5C 114.174,100.844 101.341,134.844 100.5,173.5C 107.175,173.334 113.842,173.5 120.5,174C 124.112,174.889 126.612,177.055 128,180.5C 128.667,245.5 128.667,310.5 128,375.5C 126.413,378.756 123.913,380.923 120.5,382C 108.5,382.667 96.5,382.667 84.5,382C 57.3679,380.37 40.2012,366.537 33,340.5C 31.8684,319.535 31.3684,298.535 31.5,277.5C 31.6667,258.5 31.8333,239.5 32,220.5C 36.8527,193.814 52.6861,178.48 79.5,174.5C 82.6217,106.291 113.288,54.7914 171.5,20C 192.06,9.28351 213.727,2.45017 236.5,-0.5 Z M 81.5,193.5 C 90.5,193.5 99.5,193.5 108.5,193.5C 108.5,249.5 108.5,305.5 108.5,361.5C 99.4938,361.666 90.4938,361.5 81.5,361C 64.8073,358.575 54.9739,349.075 52,332.5C 51.0307,294.128 51.364,255.795 53,217.5C 55.6109,207.891 61.4442,201.058 70.5,197C 74.2541,195.691 77.9207,194.525 81.5,193.5 Z M 402.5,194.5 C 413.564,194.094 424.564,194.594 435.5,196C 449.076,200.244 456.91,209.411 459,223.5C 459.667,258.833 459.667,294.167 459,329.5C 457.587,345.188 449.421,355.354 434.5,360C 423.898,361.403 413.231,361.903 402.5,361.5C 402.5,305.833 402.5,250.167 402.5,194.5 Z M 232.5,460.5 C 252.5,460.5 272.5,460.5 292.5,460.5C 292.5,470.833 292.5,481.167 292.5,491.5C 272.5,491.5 252.5,491.5 232.5,491.5C 232.5,481.167 232.5,470.833 232.5,460.5 Z"/></g>
</svg>
