<?xml version="1.0" standalone="no"?>
<!DOCTYPE svg PUBLIC "-//W3C//DTD SVG 20010904//EN"
 "http://www.w3.org/TR/2001/REC-SVG-20010904/DTD/svg10.dtd">
<svg version="1.0" xmlns="http://www.w3.org/2000/svg"
 width="512.000000pt" height="512.000000pt" viewBox="0 0 512.000000 512.000000"
 preserveAspectRatio="xMidYMid meet">

<g transform="translate(0.000000,512.000000) scale(0.100000,-0.100000)"
fill="#000000" stroke="none">
<path d="M2450 5025 c-30 -9 -73 -28 -95 -42 -22 -14 -233 -175 -470 -358
-236 -182 -447 -344 -467 -359 l-38 -28 0 136 0 136 43 0 c33 0 49 6 65 23 21
22 22 32 22 231 0 206 0 207 -25 231 l-24 25 -510 0 c-358 0 -517 -3 -535 -11
-42 -20 -47 -51 -44 -262 4 -231 3 -229 101 -237 l62 -5 2 -455 c2 -250 -1
-460 -5 -466 -4 -5 -79 -66 -167 -133 -88 -68 -175 -138 -194 -155 -104 -96
-110 -276 -11 -374 53 -54 106 -76 182 -76 l68 -1 0 -1358 0 -1358 25 -24 24
-25 2101 0 2101 0 24 25 25 24 0 1353 0 1353 68 1 c78 1 128 22 184 81 49 51
68 99 68 175 0 79 -31 147 -91 204 -24 23 -209 168 -411 323 l-367 281 52 48
c29 27 153 139 277 249 260 231 302 275 330 349 27 74 27 184 -1 259 -29 77
-104 156 -187 197 -60 30 -75 33 -157 33 -82 0 -96 -3 -158 -33 -64 -32 -84
-52 -325 -320 -141 -158 -277 -308 -302 -335 l-45 -47 -445 341 c-245 188
-469 353 -498 366 -67 32 -175 39 -252 18z m198 -164 c27 -15 863 -649 890
-676 8 -8 -132 -156 -144 -151 -7 3 -187 138 -400 302 -214 164 -401 302 -415
308 -21 8 -33 6 -55 -9 -16 -10 -500 -380 -1076 -822 -576 -442 -1058 -807
-1071 -812 -46 -18 -107 11 -127 59 -18 43 -5 91 33 127 46 43 347 273 358
273 13 0 674 513 729 565 66 62 1058 825 1094 841 47 20 140 17 184 -5z m1905
10 c72 -28 136 -120 137 -197 0 -93 -3 -96 -756 -766 -385 -343 -708 -629
-717 -637 -15 -12 -23 -7 -69 41 -29 30 -64 61 -77 69 l-24 15 194 216 c107
118 263 291 347 384 84 93 288 321 453 507 187 209 315 345 338 357 39 21 132
27 174 11z m-3193 -111 l0 -100 -415 0 -415 0 0 100 0 100 415 0 415 0 0 -100z
m-130 -450 l0 -189 -264 -206 c-145 -113 -267 -205 -270 -205 -3 0 -6 178 -6
395 l0 395 270 0 270 0 0 -190z m1695 -116 c198 -152 361 -280 363 -285 2 -5
-89 -112 -202 -237 l-206 -229 -79 -5 c-63 -4 -93 -11 -144 -36 -158 -78 -221
-184 -307 -519 l-11 -42 -597 -3 -597 -3 -50 -27 c-64 -34 -118 -90 -147 -153
-23 -49 -23 -58 -26 -426 l-3 -377 -79 -4 c-67 -3 -83 -7 -102 -26 l-23 -23 0
-515 0 -516 28 -24 c27 -23 35 -24 158 -24 l129 0 0 -149 c0 -144 1 -151 24
-178 l24 -28 178 -3 c293 -5 284 -12 284 203 l0 155 294 0 295 0 3 -155 c4
-214 -14 -200 258 -200 272 0 254 -14 258 200 l4 155 134 0 c130 0 136 1 159
25 l25 24 0 510 c0 280 -3 517 -6 526 -11 27 -60 45 -124 45 l-60 0 0 365 0
364 58 16 c121 33 184 56 222 80 59 38 118 104 150 170 29 58 54 175 48 224
-3 21 37 61 251 252 l254 228 71 -56 c39 -30 216 -168 394 -306 l322 -250 0
-1354 0 -1353 -1990 0 -1990 0 0 1358 0 1357 558 427 c306 235 753 578 992
762 239 184 437 335 440 335 3 0 167 -124 365 -275z m1498 -690 c205 -158 389
-303 409 -322 23 -22 40 -49 44 -69 18 -96 -83 -157 -167 -100 -57 39 -814
628 -817 636 -2 7 144 141 154 141 3 0 172 -129 377 -286z m-1495 -230 c100
-32 160 -108 169 -213 6 -69 -8 -124 -46 -181 -44 -66 -93 -93 -237 -129 -71
-18 -178 -50 -239 -72 -60 -21 -111 -36 -113 -34 -3 2 10 67 27 145 63 277
114 393 195 448 81 54 154 65 244 36z m-621 -607 c-3 -7 -11 -48 -17 -91 -12
-72 -12 -79 7 -104 29 -40 65 -38 178 6 55 22 110 43 123 46 l22 7 0 -339 0
-340 -85 -3 c-114 -5 -126 -17 -133 -128 l-5 -81 -558 0 -559 0 0 78 c-1 47
-6 84 -14 94 -19 26 -60 38 -127 38 l-59 0 0 360 c0 395 0 393 60 444 l32 26
570 0 c467 0 569 -2 565 -13z m-1185 -1233 l3 -256 28 -24 28 -24 655 0 c693
0 701 0 718 45 3 9 6 129 6 266 l0 249 130 0 130 0 0 -405 0 -405 -975 0 -975
0 0 405 0 405 124 0 125 0 3 -256z m1278 -49 l0 -95 -560 0 -560 0 0 95 0 95
560 0 560 0 0 -95z m-1010 -765 l0 -100 -100 0 -100 0 0 100 0 100 100 0 100
0 0 -100z m1100 0 l0 -100 -100 0 -100 0 0 100 0 100 100 0 100 0 0 -100z"/>
<path d="M1883 3797 c-10 -13 -40 -64 -67 -114 -50 -89 -51 -90 -130 -133
-120 -64 -146 -85 -146 -121 0 -49 14 -63 123 -124 l103 -57 60 -106 c64 -116
88 -135 141 -116 21 7 42 35 87 116 l58 106 106 58 c81 45 109 66 116 87 19
53 0 77 -115 142 l-107 60 -52 95 c-29 52 -60 103 -68 113 -23 26 -86 23 -109
-6z m89 -267 c20 -36 41 -57 80 -79 l52 -30 -34 -18 c-44 -23 -90 -69 -113
-113 l-18 -34 -30 52 c-16 28 -40 59 -54 67 -14 8 -37 22 -51 31 l-27 16 51
30 c37 21 60 43 79 79 16 27 30 49 33 49 3 0 17 -23 32 -50z"/>
<path d="M3516 2831 c-23 -26 -356 -848 -356 -881 0 -15 10 -36 23 -48 21 -20
35 -22 192 -24 l170 -3 0 -540 0 -540 -72 -5 c-128 -9 -163 -56 -163 -220 0
-121 14 -161 69 -197 34 -23 36 -23 406 -23 370 0 372 0 406 23 55 36 69 76
69 197 0 121 -14 161 -69 197 -26 18 -48 23 -97 23 l-64 0 0 545 0 545 50 0
50 0 0 -340 c0 -327 1 -341 20 -360 27 -27 83 -27 110 2 19 21 20 33 20 360
l0 338 36 0 c46 0 69 13 83 48 12 28 0 59 -163 463 -97 239 -184 440 -193 447
-12 9 -82 12 -263 12 -228 0 -248 -1 -264 -19z m562 -465 c73 -180 131 -330
129 -332 -2 -2 -196 -3 -430 -2 l-426 3 128 315 c70 173 130 323 134 333 6 16
21 17 169 15 l163 -3 133 -329z m-208 -1031 l0 -545 -85 0 -85 0 0 545 0 545
85 0 85 0 0 -545z m230 -766 l0 -69 -315 0 -315 0 0 69 0 70 315 0 315 -1 0
-69z"/>
<path d="M1762 2501 c-15 -15 -44 -64 -65 -107 l-39 -80 -96 -49 c-110 -57
-133 -84 -112 -135 9 -21 38 -44 110 -85 l98 -55 51 -94 c39 -72 57 -96 78
-104 53 -17 78 2 139 105 35 60 67 101 85 111 134 76 164 98 172 129 14 48 -9
74 -113 130 l-91 48 -50 92 c-70 129 -113 153 -167 94z m78 -250 c13 -33 43
-62 84 -83 l28 -15 -44 -26 c-25 -14 -52 -41 -63 -61 -11 -20 -23 -36 -27 -36
-4 0 -16 17 -27 38 -11 22 -35 46 -60 60 -23 13 -41 25 -41 27 0 3 18 14 40
25 24 12 48 36 62 60 13 22 26 40 29 40 4 0 12 -13 19 -29z"/>
</g>
</svg>
