<?xml version="1.0" standalone="no"?>
<!DOCTYPE svg PUBLIC "-//W3C//DTD SVG 20010904//EN"
 "http://www.w3.org/TR/2001/REC-SVG-20010904/DTD/svg10.dtd">
<svg version="1.0" xmlns="http://www.w3.org/2000/svg"
 width="512.000000pt" height="512.000000pt" viewBox="0 0 512.000000 512.000000"
 preserveAspectRatio="xMidYMid meet">

<g transform="translate(0.000000,512.000000) scale(0.100000,-0.100000)"
fill="#000000" stroke="none">
<path d="M1840 5027 c-49 -16 -133 -102 -148 -153 -16 -55 -16 -418 0 -465 6
-19 20 -46 30 -61 19 -28 19 -28 0 -55 -31 -45 -45 -101 -39 -159 l6 -54 -61
0 c-33 0 -79 -5 -102 -12 -55 -16 -138 -99 -154 -154 -8 -29 -12 -151 -12
-416 l0 -375 -122 -6 c-241 -11 -424 -70 -624 -202 -202 -134 -378 -356 -460
-580 -10 -27 -29 -65 -43 -84 l-26 -34 0 -297 0 -297 26 -34 c14 -19 33 -56
43 -84 82 -224 258 -446 460 -580 199 -131 384 -191 624 -202 l122 -6 0 -215
c0 -139 4 -229 12 -256 16 -55 99 -138 154 -154 60 -17 3288 -17 3348 0 55 16
138 99 154 154 17 59 18 3608 0 3666 -6 22 -31 62 -55 88 -51 56 -108 80 -194
80 l-58 0 -3 429 c-3 416 -4 430 -24 457 -11 15 -33 37 -48 48 -27 20 -39 21
-406 21 -367 0 -379 -1 -406 -21 -15 -11 -37 -33 -48 -48 -20 -27 -21 -41 -24
-457 l-3 -429 -83 0 -84 0 5 63 c4 54 1 69 -25 120 l-29 57 29 56 c28 57 28
57 28 257 0 127 -4 215 -12 241 -16 55 -99 138 -154 154 -56 16 -1542 15
-1594 -1z m1575 -172 c25 -24 25 -26 25 -215 0 -189 0 -191 -25 -215 l-24 -25
-751 0 -751 0 -24 25 c-25 24 -25 26 -25 215 0 189 0 191 25 215 l24 25 751 0
751 0 24 -25z m1145 -375 l0 -400 -63 0 -62 0 -145 145 c-80 80 -149 145 -155
145 -13 0 -105 -91 -105 -104 0 -6 39 -50 87 -98 l88 -88 -143 0 -142 0 0 400
0 400 320 0 320 0 0 -400z m-1145 -265 c33 -32 33 -78 0 -110 l-24 -25 -751 0
-751 0 -24 25 c-16 15 -25 36 -25 55 0 19 9 40 25 55 l24 25 751 0 751 0 24
-25z m1440 -320 c25 -24 25 -24 25 -240 l0 -215 -1680 0 -1680 0 0 215 c0 216
0 216 25 240 l24 25 1631 0 1631 0 24 -25z m25 -2110 l0 -1496 -25 -24 -24
-25 -1631 0 -1631 0 -24 25 -25 24 0 231 c0 220 1 230 19 230 11 0 61 14 111
30 217 71 412 206 563 388 l27 34 27 -34 c66 -83 231 -227 310 -273 2 -1 -4
-86 -12 -190 -9 -103 -14 -189 -12 -192 3 -2 61 24 131 59 119 58 132 62 211
66 66 3 98 0 153 -17 64 -19 70 -23 76 -53 12 -61 52 -114 108 -142 86 -43
139 -34 259 45 l78 51 37 -37 c81 -82 190 -102 320 -61 127 41 195 102 223
202 17 61 14 92 -29 275 -22 95 -40 178 -40 185 0 8 32 56 70 106 113 149 188
310 226 488 23 106 26 352 5 455 -74 375 -311 689 -649 859 -170 85 -329 121
-537 121 -346 -1 -631 -124 -868 -376 l-90 -96 -59 69 c-96 111 -226 212 -366
282 -77 39 -240 96 -273 96 -17 0 -19 8 -19 95 l0 95 1680 0 1680 0 0 -1495z
m-3454 1164 c144 -20 324 -90 443 -172 65 -45 195 -171 248 -241 195 -261 255
-633 150 -941 -53 -156 -124 -271 -242 -393 -260 -272 -635 -380 -997 -288
-291 74 -542 276 -676 542 l-31 62 67 4 c37 3 75 8 84 12 13 6 22 -3 41 -41
35 -68 125 -180 188 -234 111 -94 223 -154 364 -192 114 -31 316 -31 430 0
664 180 887 991 405 1473 -372 372 -985 337 -1307 -74 -30 -39 -66 -92 -80
-119 -19 -38 -28 -47 -41 -41 -9 4 -47 9 -84 12 l-67 4 31 62 c74 146 211 304
343 393 218 147 476 208 731 172z m1920 0 c144 -20 324 -90 443 -172 65 -45
195 -171 248 -241 192 -256 252 -613 156 -921 -41 -130 -156 -339 -167 -304
-3 8 -14 57 -26 110 l-22 96 21 41 c38 75 72 212 78 317 35 635 -615 1101
-1204 861 -188 -77 -328 -202 -450 -402 -11 -18 -11 -18 -18 1 -4 11 -21 50
-38 88 -38 86 -38 87 108 232 131 131 226 191 390 247 164 56 315 70 481 47z
m-1851 -343 c113 -36 198 -89 290 -181 91 -91 144 -175 182 -290 23 -71 26
-96 26 -215 0 -119 -3 -144 -26 -215 -38 -115 -91 -199 -182 -290 -91 -91
-175 -144 -290 -182 -71 -23 -96 -26 -215 -26 -119 0 -144 3 -215 26 -115 38
-199 91 -290 182 -91 91 -144 175 -182 290 -23 71 -26 96 -26 215 -1 118 3
145 25 212 39 119 92 204 182 294 110 110 236 177 381 204 88 16 250 4 340
-24z m1920 0 c113 -36 198 -89 290 -181 92 -92 144 -175 182 -290 22 -68 26
-99 27 -205 1 -165 -2 -173 -55 -115 -79 85 -197 120 -332 96 -37 -6 -124 -36
-194 -65 l-128 -54 -43 40 c-96 88 -219 108 -328 53 -103 -53 -189 -193 -201
-327 -3 -32 -9 -58 -12 -58 -12 0 -73 110 -96 173 -72 198 -53 417 50 604 50
88 179 218 266 266 132 74 234 98 389 92 77 -3 127 -10 185 -29z m-3015 -686
l0 -240 -80 0 -80 0 0 240 0 240 80 0 80 0 0 -240z m2612 -176 c34 -18 31 -23
-32 -49 -25 -10 -46 -20 -48 -21 -3 -2 49 -126 58 -137 4 -4 117 40 252 98
135 57 270 110 298 116 108 23 200 -12 233 -87 29 -66 229 -955 223 -988 -9
-45 -42 -73 -113 -97 -94 -31 -154 -14 -189 53 -10 20 -29 149 -55 381 -21
193 -40 352 -42 353 -3 3 -149 -15 -153 -19 -2 -1 12 -140 31 -307 19 -168 35
-318 35 -335 0 -27 -10 -36 -90 -89 -81 -53 -93 -58 -115 -48 l-25 12 0 470 0
470 -80 0 -80 0 0 -376 0 -375 -22 7 c-88 28 -222 32 -308 10 -30 -8 -56 -13
-57 -12 -6 5 59 784 67 816 14 52 65 127 102 150 40 24 69 25 110 4z m-462
-415 l58 -65 -7 -86 c-3 -48 -10 -90 -13 -94 -9 -9 -218 202 -237 238 -13 25
-12 33 16 95 17 38 34 77 37 88 6 16 14 8 48 -45 22 -36 66 -94 98 -131z"/>
<path d="M2240 4640 l0 -80 520 0 520 0 0 80 0 80 -520 0 -520 0 0 -80z"/>
<path d="M4077 4722 c-26 -26 -47 -52 -47 -57 0 -6 88 -98 195 -205 l195 -195
57 58 58 57 -195 195 c-107 107 -200 195 -205 195 -6 0 -32 -22 -58 -48z"/>
<path d="M1840 3680 l0 -80 80 0 80 0 0 80 0 80 -80 0 -80 0 0 -80z"/>
<path d="M2160 3680 l0 -80 80 0 80 0 0 80 0 80 -80 0 -80 0 0 -80z"/>
<path d="M2480 3680 l0 -80 80 0 80 0 0 80 0 80 -80 0 -80 0 0 -80z"/>
<path d="M3120 3680 l0 -80 240 0 240 0 0 80 0 80 -240 0 -240 0 0 -80z"/>
<path d="M3760 3680 l0 -80 320 0 320 0 0 80 0 80 -320 0 -320 0 0 -80z"/>
</g>
</svg>
