<?xml version="1.0" standalone="no"?>
<!DOCTYPE svg PUBLIC "-//W3C//DTD SVG 20010904//EN"
 "http://www.w3.org/TR/2001/REC-SVG-20010904/DTD/svg10.dtd">
<svg version="1.0" xmlns="http://www.w3.org/2000/svg"
 width="512.000000pt" height="512.000000pt" viewBox="0 0 512.000000 512.000000"
 preserveAspectRatio="xMidYMid meet">

<g transform="translate(0.000000,512.000000) scale(0.100000,-0.100000)"
fill="#000000" stroke="none">
<path d="M1775 5020 c-101 -12 -225 -56 -317 -111 l-81 -49 -59 40 c-84 56
-173 82 -278 82 -250 0 -430 -156 -514 -444 -34 -117 -42 -185 -66 -506 -24
-323 -30 -352 -92 -383 -50 -26 -67 -59 -45 -93 20 -30 70 -40 185 -38 174 2
312 61 437 186 130 128 158 194 101 232 -34 22 -67 5 -105 -55 -45 -69 -140
-155 -213 -192 -56 -28 -198 -64 -198 -50 0 3 7 24 14 46 8 23 23 165 36 330
24 327 32 391 61 490 49 163 125 267 235 321 114 56 290 42 379 -30 l30 -25
-26 -26 c-25 -25 -33 -27 -115 -29 -77 -1 -95 -5 -136 -28 -182 -108 -185
-376 -4 -479 l53 -29 11 -79 c14 -100 43 -186 93 -280 22 -40 38 -74 37 -75
-90 -50 -141 -111 -159 -191 -31 -140 52 -275 193 -312 29 -7 71 -13 93 -13
37 0 44 -5 85 -58 25 -31 76 -79 113 -107 l67 -50 0 -57 0 -58 -75 0 c-84 0
-128 -14 -164 -54 -14 -14 -33 -26 -43 -26 -77 0 -249 -97 -315 -178 -22 -26
-212 -299 -423 -607 -266 -387 -390 -577 -403 -615 -14 -41 -18 -74 -15 -130
6 -101 47 -180 134 -256 l62 -54 -15 -42 c-21 -63 -3 -126 50 -174 47 -43 205
-120 330 -160 79 -25 87 -31 82 -49 -39 -119 -42 -194 -13 -261 42 -98 130
-174 224 -195 46 -10 56 -10 78 5 31 20 35 65 9 88 -10 8 -40 21 -67 28 -94
25 -159 125 -141 216 3 21 20 64 36 96 35 70 37 111 7 132 -12 9 -30 16 -40
16 -74 0 -405 140 -433 184 -16 24 -16 27 4 60 34 55 222 228 291 268 70 41
113 47 158 24 29 -15 150 -137 245 -247 l57 -66 0 -387 c0 -373 1 -387 20
-406 20 -20 33 -20 644 -20 l625 0 20 26 c21 26 21 35 21 633 l0 606 35 70
c52 104 69 182 62 290 -8 133 -68 281 -157 389 l-40 48 0 239 c0 153 4 239 10
239 6 0 27 -17 48 -38 44 -44 454 -630 450 -643 -2 -5 -52 -41 -113 -81 -126
-84 -136 -97 -115 -136 21 -37 61 -40 111 -8 21 14 42 26 46 26 5 0 32 -44 62
-98 30 -53 65 -112 79 -131 34 -45 99 -73 165 -70 l52 3 17 -114 c27 -186 31
-171 -64 -226 -66 -38 -95 -49 -140 -52 -91 -7 -134 20 -226 141 -98 129 -116
147 -145 147 -30 0 -57 -29 -57 -61 0 -32 174 -255 228 -292 75 -53 186 -71
277 -46 22 6 71 29 109 52 56 32 72 38 85 28 56 -40 80 -51 117 -51 49 0 83
21 264 167 116 93 135 112 138 139 4 37 -19 64 -53 64 -16 0 -79 -44 -181
-125 -86 -69 -162 -125 -169 -125 -7 0 -17 6 -23 13 -13 15 -71 448 -65 481 7
37 46 71 95 85 24 6 89 26 146 43 l102 31 23 -21 c29 -28 89 -52 127 -52 29 0
30 -2 30 -42 0 -24 12 -70 25 -103 l25 -60 0 -672 c0 -660 0 -673 20 -693 18
-18 33 -20 143 -20 95 0 128 4 145 16 l22 15 0 629 0 629 33 17 c45 23 105 82
130 129 21 38 22 53 22 270 0 220 -1 232 -23 272 -65 123 -193 180 -334 150
l-38 -8 0 1016 c0 1002 0 1015 -20 1035 -18 18 -33 20 -134 20 -145 0 -157 -8
-186 -125 -44 -173 -48 -345 -10 -476 12 -44 48 -64 84 -47 36 16 38 31 20
139 -13 81 -14 115 -5 196 6 54 16 118 24 143 13 44 13 45 60 48 l47 3 0 -988
0 -988 -51 4 c-67 4 -129 -20 -173 -69 -42 -47 -56 -92 -56 -186 0 -60 -3 -73
-17 -77 -10 -3 -74 -21 -143 -41 -69 -21 -135 -43 -147 -51 -45 -30 -84 -82
-99 -132 -12 -42 -21 -54 -41 -59 -52 -13 -74 5 -140 121 -34 61 -62 115 -60
122 1 6 25 26 52 45 84 56 85 52 -174 423 -271 387 -275 393 -353 444 -74 48
-72 46 -101 91 -34 53 -96 80 -184 80 l-73 0 0 58 0 59 56 38 c160 110 254
296 254 502 0 89 3 92 50 68 45 -23 74 -71 74 -126 1 -54 -20 -90 -75 -127
-19 -13 -37 -32 -41 -43 -11 -29 8 -68 37 -75 37 -9 78 12 129 66 147 158 56
413 -157 437 -40 5 -61 14 -89 39 -24 21 -62 40 -110 54 -102 31 -180 74 -247
139 -101 98 -193 258 -240 417 -33 111 -58 120 -166 59 -127 -71 -245 -204
-303 -342 -28 -66 -51 -165 -53 -223 l-1 -45 -33 70 c-89 188 -85 396 12 595
39 80 59 108 132 180 142 139 288 201 481 201 317 2 576 -192 671 -501 36
-115 34 -273 -5 -397 -28 -88 -28 -93 -12 -118 20 -30 65 -34 88 -7 9 9 25 46
36 82 127 390 -59 817 -431 990 -126 59 -299 86 -442 70z m-645 -481 c-16 -34
-37 -96 -46 -138 -10 -42 -19 -78 -21 -80 -6 -9 -46 36 -59 66 -20 46 -17 89
7 133 24 42 80 79 121 80 l27 0 -29 -61z m580 -241 c56 -154 139 -289 240
-388 80 -79 169 -133 275 -165 92 -29 98 -32 114 -62 16 -32 12 -188 -7 -264
-44 -166 -181 -299 -351 -339 -33 -8 -87 -11 -140 -8 -204 12 -374 153 -426
355 -22 82 -21 485 0 568 34 128 119 253 225 331 25 18 46 34 46 34 1 0 12
-28 24 -62z m-430 -746 c0 -48 6 -111 14 -140 7 -29 10 -55 6 -57 -15 -9 -79
16 -103 41 -69 68 -56 174 26 224 54 33 57 29 57 -68z m590 -597 c58 0 120 3
138 7 l32 8 0 -98 c0 -124 -11 -161 -60 -205 -60 -55 -125 -60 -197 -16 -54
34 -73 89 -73 212 l0 107 28 -7 c15 -5 74 -8 132 -8z m-280 -408 c0 -275 7
-309 75 -385 60 -67 121 -95 205 -96 113 0 204 56 258 159 27 50 27 51 30 303
l4 252 67 0 c39 0 72 -5 79 -12 9 -9 12 -96 12 -330 0 -335 2 -353 46 -389 34
-28 104 -148 129 -222 43 -131 28 -264 -45 -377 -37 -57 -79 -86 -138 -96 -73
-12 -98 -51 -61 -99 20 -25 26 -27 68 -21 25 3 58 9 74 12 l27 6 0 -521 0
-521 -545 0 -545 0 0 526 c0 486 1 526 17 520 44 -17 154 -29 180 -20 37 13
52 54 30 87 -13 20 -26 25 -82 30 -91 9 -141 38 -183 107 -18 30 -39 77 -47
104 -17 57 -19 161 -4 226 15 69 73 178 131 249 l53 64 3 326 c2 214 6 329 14
338 7 8 35 13 79 13 l69 0 0 -233z m-290 -125 l0 -277 -45 -60 c-62 -83 -113
-192 -132 -283 -9 -42 -18 -78 -19 -80 -3 -4 -371 252 -393 273 -11 11 10 47
130 221 223 326 256 370 307 408 37 26 121 69 150 75 1 1 2 -124 2 -277z m575
83 c64 0 89 5 123 23 l42 22 0 -108 c0 -124 -10 -164 -52 -208 -62 -66 -163
-66 -226 -1 -43 44 -52 81 -52 210 l0 107 43 -22 c33 -18 58 -23 122 -23z
m2320 -406 c22 -6 53 -23 69 -37 50 -47 56 -75 56 -273 0 -169 -2 -184 -22
-221 -64 -114 -231 -111 -287 6 -19 38 -21 61 -21 219 0 191 6 222 53 265 20
19 84 50 107 52 3 0 23 -5 45 -11z m-310 -51 c-4 -13 -10 -74 -12 -135 -5
-112 -5 -113 -30 -113 -14 0 -37 13 -54 29 -27 27 -29 35 -29 106 0 71 2 79
29 106 22 22 39 29 66 29 34 0 37 -2 30 -22z m-3109 -248 c79 -56 144 -103
144 -105 0 -2 -43 -52 -96 -111 -107 -118 -124 -149 -124 -226 -1 -53 -1 -53
-53 -88 -28 -19 -91 -72 -138 -117 l-86 -83 -64 63 c-46 44 -69 74 -77 103
-15 51 -15 114 -2 150 11 27 340 514 348 514 2 0 69 -45 148 -100z m307 -215
c26 -20 47 -43 47 -53 0 -9 18 -53 40 -97 l40 -80 0 -132 0 -133 -101 104
c-111 116 -174 156 -246 156 -71 0 -61 31 55 159 53 60 102 110 107 110 6 0
31 -15 58 -34z m3033 -215 c12 0 14 -95 14 -580 l0 -580 -45 0 -45 0 0 586 0
587 31 -7 c17 -3 38 -6 45 -6z"/>
<path d="M1646 3664 c-25 -24 -20 -71 9 -90 29 -19 60 -11 81 20 36 56 -43
117 -90 70z"/>
<path d="M2014 3655 c-21 -31 -15 -53 19 -79 26 -19 30 -19 55 -5 54 30 32
109 -29 109 -19 0 -34 -8 -45 -25z"/>
<path d="M1787 1332 c-24 -26 -21 -68 5 -86 31 -22 101 -21 121 2 21 23 22 66
1 86 -23 23 -106 21 -127 -2z"/>
<path d="M3330 4579 c-117 -47 -164 -181 -111 -319 l21 -54 -31 -81 c-42 -108
-76 -221 -96 -324 -23 -120 -23 -344 0 -429 55 -196 161 -322 270 -322 40 0
101 22 127 45 14 13 21 11 56 -14 48 -36 124 -67 186 -76 39 -6 49 -4 67 14
45 45 15 92 -69 110 -53 11 -132 54 -163 89 -23 25 -55 129 -71 227 -15 94
-18 100 -58 110 -34 9 -68 -23 -68 -63 0 -44 19 -140 42 -216 l22 -69 -23 -18
c-52 -42 -107 -5 -160 106 -42 89 -56 157 -55 280 0 164 32 317 105 506 l30
79 104 0 c115 0 135 9 135 60 0 48 -29 60 -147 60 -102 0 -104 0 -113 26 -19
49 -12 113 15 139 l24 25 725 0 725 0 28 -24 c22 -19 28 -32 27 -63 -1 -22 -8
-53 -15 -69 -13 -27 -19 -29 -86 -34 -101 -7 -136 -43 -97 -98 12 -18 25 -22
66 -22 l51 0 -7 -52 c-44 -347 -9 -661 94 -845 35 -61 38 -105 10 -133 -32
-32 -67 -35 -115 -12 -132 64 -225 224 -256 441 -14 93 -29 121 -68 121 -36 0
-61 -28 -61 -67 0 -95 57 -293 112 -390 32 -58 31 -82 -5 -106 -58 -38 -131
-25 -214 39 l-33 25 2 487 3 487 79 3 79 3 -7 -53 c-3 -29 -9 -89 -13 -134 -5
-77 -5 -82 18 -97 57 -40 93 -3 103 105 3 40 14 113 23 162 l16 90 -27 23
c-26 22 -34 23 -185 23 -145 0 -161 -2 -185 -21 l-26 -20 0 -965 c0 -951 0
-964 20 -984 24 -24 48 -25 78 -4 l22 15 0 361 c0 339 1 360 18 355 9 -4 44
-16 77 -28 90 -32 185 -10 253 58 l25 25 29 -22 c50 -37 131 -70 174 -70 23 0
62 11 93 26 67 34 103 86 109 159 4 48 -1 65 -41 152 -63 135 -83 219 -97 406
-14 193 12 412 61 507 40 77 54 154 40 208 -14 51 -61 106 -112 133 -37 18
-65 19 -781 18 -463 0 -752 -4 -768 -10z"/>
<path d="M3437 3808 c-26 -21 -39 -66 -26 -91 24 -45 67 -50 98 -11 27 34 27
68 -1 94 -25 23 -47 25 -71 8z"/>
</g>
</svg>
