<?xml version="1.0" standalone="no"?>
<!DOCTYPE svg PUBLIC "-//W3C//DTD SVG 20010904//EN"
 "http://www.w3.org/TR/2001/REC-SVG-20010904/DTD/svg10.dtd">
<svg version="1.0" xmlns="http://www.w3.org/2000/svg"
 width="512.000000pt" height="512.000000pt" viewBox="0 0 512.000000 512.000000"
 preserveAspectRatio="xMidYMid meet">

<g transform="translate(0.000000,512.000000) scale(0.100000,-0.100000)"
fill="#000000" stroke="none">
<path d="M2445 5114 c-161 -24 -343 -98 -360 -147 -7 -21 -5 -35 6 -55 26 -48
54 -49 159 -7 250 100 493 82 725 -53 33 -20 96 -72 141 -116 117 -118 188
-251 219 -408 l13 -68 -125 0 c-118 0 -125 -1 -148 -25 -14 -13 -25 -36 -25
-50 0 -14 11 -37 25 -50 23 -24 30 -25 150 -25 l125 0 0 -120 0 -120 -125 0
c-120 0 -127 -1 -150 -25 -14 -13 -25 -36 -25 -50 0 -14 11 -37 25 -50 23 -24
30 -25 150 -25 l125 0 0 -120 0 -120 -125 0 c-120 0 -127 -1 -150 -25 -32 -31
-32 -69 0 -100 23 -24 30 -25 150 -25 l125 0 0 -120 0 -120 -125 0 c-120 0
-127 -1 -150 -25 -14 -13 -25 -36 -25 -50 0 -14 11 -37 25 -50 23 -24 30 -25
148 -25 l125 0 -13 -67 c-58 -298 -274 -530 -572 -615 -111 -32 -295 -32 -406
0 -297 85 -515 319 -572 615 l-13 67 125 0 c118 0 125 1 148 25 14 13 25 36
25 50 0 14 -11 37 -25 50 -23 24 -30 25 -150 25 l-125 0 0 120 0 120 125 0
c120 0 127 1 150 25 32 31 32 69 0 100 -23 24 -30 25 -150 25 l-125 0 0 120 0
120 125 0 c120 0 127 1 150 25 32 31 32 69 0 100 -23 24 -30 25 -150 25 l-125
0 0 120 0 120 125 0 c120 0 127 1 150 25 32 31 32 69 0 100 -23 24 -30 25
-148 25 l-125 0 13 68 c25 129 76 239 161 349 49 63 56 101 24 133 -34 34 -82
27 -122 -18 -83 -92 -162 -240 -200 -379 -21 -75 -22 -100 -26 -600 l-3 -523
-94 0 -93 0 -4 233 c-3 215 -5 235 -25 272 -44 82 -114 125 -203 125 -61 0
-104 -17 -153 -59 -69 -61 -69 -57 -64 -627 3 -508 4 -509 29 -614 76 -307
199 -535 407 -753 210 -219 467 -368 766 -444 l105 -27 0 -452 0 -453 -372 -3
c-360 -3 -374 -4 -413 -25 -89 -48 -137 -126 -136 -225 0 -69 36 -146 86 -184
62 -47 103 -54 315 -54 178 0 200 2 221 19 32 26 32 86 0 112 -21 17 -43 19
-216 19 l-193 0 -31 26 c-42 35 -44 98 -5 135 l26 24 990 0 990 0 24 -28 c36
-42 33 -98 -7 -131 l-31 -26 -657 0 c-651 0 -659 0 -685 -21 -36 -28 -36 -80
0 -108 26 -21 34 -21 689 -21 556 0 669 2 704 15 99 35 162 121 162 223 1 99
-47 177 -136 225 -39 21 -53 22 -412 25 l-373 3 0 454 0 454 38 7 c20 4 88 22
150 41 259 77 487 217 678 414 211 220 335 448 412 759 25 105 26 106 29 614
5 570 5 566 -64 627 -49 42 -92 59 -153 59 -89 0 -159 -43 -203 -125 -20 -37
-22 -57 -25 -272 l-4 -233 -93 0 -94 0 -3 523 c-4 508 -5 524 -27 602 -29 103
-89 231 -145 308 -51 72 -170 189 -239 236 -72 49 -205 109 -294 132 -76 19
-279 33 -348 23z m-1194 -1363 l24 -19 6 -489 c5 -485 5 -489 31 -583 54 -201
126 -347 247 -500 154 -195 377 -347 620 -424 348 -110 760 -56 1060 138 78
50 95 80 70 125 -24 42 -63 50 -112 22 -249 -143 -410 -191 -637 -191 -515 0
-964 347 -1097 847 -22 83 -27 126 -31 281 l-4 182 95 0 94 0 6 -137 c11 -274
102 -481 288 -658 128 -121 263 -196 426 -237 125 -31 322 -31 448 0 275 69
510 265 631 527 53 116 75 213 81 368 l6 137 94 0 95 0 -4 -182 c-4 -156 -9
-198 -32 -283 -32 -123 -116 -295 -190 -393 -75 -98 -78 -105 -66 -138 23 -61
72 -69 125 -23 40 35 142 184 185 268 35 71 75 183 102 286 20 74 22 115 27
568 l6 489 24 19 c30 25 76 24 101 -1 19 -19 20 -33 20 -472 0 -488 -5 -547
-55 -723 -34 -121 -139 -331 -216 -435 -218 -295 -516 -487 -879 -566 -130
-29 -450 -26 -578 4 -219 52 -402 137 -567 261 -245 186 -434 462 -515 752
-45 163 -50 228 -50 707 0 439 1 453 20 472 25 25 71 26 101 1z m1429 -2816
l0 -445 -120 0 -120 0 0 445 0 445 120 0 120 0 0 -445z"/>
</g>
</svg>
