<?xml version="1.0" standalone="no"?>
<!DOCTYPE svg PUBLIC "-//W3C//DTD SVG 20010904//EN"
 "http://www.w3.org/TR/2001/REC-SVG-20010904/DTD/svg10.dtd">
<svg version="1.0" xmlns="http://www.w3.org/2000/svg"
 width="512.000000pt" height="511.000000pt" viewBox="0 0 512.000000 511.000000"
 preserveAspectRatio="xMidYMid meet">

<g transform="translate(0.000000,511.000000) scale(0.100000,-0.100000)"
fill="#000000" stroke="none">
<path d="M29 5071 l-29 -29 0 -2489 c0 -2463 0 -2488 20 -2521 l20 -32 2518 0
2519 0 19 21 c13 14 19 36 19 65 l0 44 -2485 2485 -2485 2485 -43 0 c-35 0
-49 -6 -73 -29z m864 -1223 c-62 -62 -116 -124 -121 -139 -24 -62 23 -129 91
-129 38 0 47 7 161 120 l122 120 212 -213 212 -212 -106 -105 c-134 -134 -150
-163 -123 -224 15 -32 72 -60 107 -51 16 3 77 56 145 123 l117 117 212 -212
212 -212 -116 -119 c-70 -71 -118 -128 -120 -143 -10 -70 31 -119 99 -119 43
0 48 3 164 117 l120 117 209 -209 209 -209 -114 -117 c-63 -64 -117 -128 -121
-143 -18 -74 49 -140 123 -121 16 4 76 55 143 121 l116 114 207 -208 c114
-114 207 -211 207 -217 0 -5 -52 -61 -115 -125 -108 -110 -115 -119 -115 -157
0 -65 52 -106 120 -94 15 3 73 51 143 120 l118 115 212 -212 212 -212 -117
-117 c-67 -68 -120 -129 -123 -145 -9 -35 19 -92 51 -107 61 -27 78 -18 208
109 l122 119 399 -399 400 -400 -2288 0 -2287 0 0 2287 0 2288 402 -402 403
-403 -112 -112z"/>
<path d="M889 3021 l-29 -29 0 -1034 c0 -1005 1 -1034 20 -1065 13 -21 31 -35
57 -42 51 -15 2003 -15 2054 -1 52 14 74 43 74 96 l0 44 -1030 1030 -1030
1030 -43 0 c-35 0 -49 -6 -73 -29z m1006 -1141 l830 -830 -833 0 -832 0 0 830
c0 457 1 830 3 830 1 0 376 -373 832 -830z"/>
<path d="M1236 5069 c-16 -19 -26 -43 -26 -62 0 -18 65 -228 145 -467 l145
-435 1438 -1436 c1592 -1591 1465 -1474 1602 -1474 113 1 157 29 351 223 200
200 224 238 223 352 0 140 110 21 -1477 1608 l-1432 1432 -435 145 c-244 81
-451 145 -471 145 -29 0 -43 -7 -63 -31z m536 -325 c159 -53 288 -99 288 -102
0 -12 -389 -396 -395 -390 -6 6 -195 568 -195 580 0 5 3 8 7 8 5 0 137 -43
295 -96z m1466 -1247 l1012 -1012 -213 -213 -212 -212 -1015 1015 -1015 1015
210 210 c115 115 212 210 215 210 3 0 461 -456 1018 -1013z m1225 -1225 l67
-67 -213 -213 -212 -212 -70 70 -70 70 210 210 c115 116 212 210 215 210 3 0
36 -30 73 -68z m444 -456 c29 -56 15 -79 -155 -248 -86 -86 -167 -161 -180
-168 -47 -23 -81 -3 -205 118 l-117 116 212 213 213 213 108 -108 c60 -59 115
-120 124 -136z"/>
<path d="M2734 3625 c-51 -26 -67 -81 -40 -133 8 -15 115 -127 238 -249 224
-223 231 -229 293 -224 34 3 75 57 75 98 0 35 -13 51 -237 275 -255 255 -268
264 -329 233z"/>
<path d="M3419 2901 c-76 -77 5 -199 104 -157 42 17 57 41 57 91 0 51 -44 95
-95 95 -27 0 -44 -8 -66 -29z"/>
</g>
</svg>
