<?xml version="1.0" standalone="no"?>
<!DOCTYPE svg PUBLIC "-//W3C//DTD SVG 20010904//EN"
 "http://www.w3.org/TR/2001/REC-SVG-20010904/DTD/svg10.dtd">
<svg version="1.0" xmlns="http://www.w3.org/2000/svg"
 width="512.000000pt" height="512.000000pt" viewBox="0 0 512.000000 512.000000"
 preserveAspectRatio="xMidYMid meet">

<g transform="translate(0.000000,512.000000) scale(0.100000,-0.100000)"
fill="#000000" stroke="none">
<path d="M824 4929 c-17 -19 -19 -38 -19 -183 l0 -161 31 -55 c36 -64 102
-111 167 -119 l42 -6 8 -84 c50 -557 385 -1085 917 -1446 153 -103 201 -180
199 -319 -1 -130 -51 -211 -190 -305 -274 -186 -503 -419 -661 -673 -144 -233
-242 -518 -265 -779 l-8 -83 -45 -8 c-55 -9 -115 -50 -153 -104 -36 -51 -50
-142 -45 -286 3 -96 6 -110 26 -130 l23 -23 1709 0 1709 0 23 23 c22 22 23 29
23 185 l0 162 -31 55 c-36 64 -102 111 -167 119 l-41 6 -13 114 c-62 558 -394
1069 -927 1426 -136 91 -186 173 -186 305 0 133 49 213 191 309 273 186 505
421 659 669 145 235 233 488 263 753 l13 114 41 6 c65 8 131 55 167 119 l31
55 0 161 c0 145 -2 164 -19 183 l-19 21 -1717 0 -1717 0 -19 -21z m3336 -227
c0 -93 -1 -100 -26 -123 l-26 -24 -1548 0 -1548 0 -26 24 c-25 23 -26 30 -26
123 l0 98 1600 0 1600 0 0 -98z m-244 -379 c-46 -510 -356 -988 -864 -1334
-114 -77 -164 -131 -211 -229 -35 -74 -36 -77 -36 -200 0 -123 1 -126 36 -200
47 -98 97 -152 211 -229 511 -348 822 -829 864 -1339 l7 -82 -96 0 -96 0 -32
58 c-42 74 -175 207 -264 264 -137 89 -265 148 -490 225 -71 24 -153 58 -181
74 -53 30 -134 109 -134 130 0 7 -7 21 -17 31 -32 35 -123 14 -123 -29 0 -23
-79 -101 -134 -132 -28 -16 -118 -52 -201 -81 -172 -59 -365 -148 -469 -217
-102 -68 -211 -176 -258 -255 l-40 -68 -94 0 -94 0 0 41 c0 110 51 330 111
483 132 335 384 637 729 876 131 90 153 111 202 184 118 182 102 426 -40 587
-23 25 -76 70 -119 99 -163 112 -242 177 -368 304 -187 189 -317 383 -404 602
-59 149 -111 373 -111 478 l0 36 1361 0 1362 0 -7 -77z m-1302 -3072 c65 -50
149 -91 256 -126 295 -96 503 -207 623 -333 31 -33 57 -65 57 -71 0 -8 -291
-11 -990 -11 -699 0 -990 3 -990 11 0 6 26 38 58 71 119 126 327 237 622 333
106 35 201 82 260 129 25 20 47 36 49 36 2 0 27 -18 55 -39z m1523 -713 c21
-20 23 -30 23 -125 l0 -103 -1600 0 -1600 0 0 100 c0 94 2 103 25 125 l24 25
1552 0 1553 0 23 -22z"/>
<path d="M1546 3888 c-26 -36 -19 -73 29 -153 134 -227 331 -429 589 -605 58
-40 131 -100 162 -134 63 -70 127 -190 150 -286 16 -68 48 -110 84 -110 36 0
68 42 84 110 23 96 87 216 150 286 31 34 104 94 162 134 258 176 447 369 587
602 50 82 57 119 31 156 l-15 22 -999 0 -999 0 -15 -22z m1817 -159 c-33 -56
-172 -217 -246 -283 -79 -71 -160 -133 -279 -215 -91 -62 -191 -165 -239 -244
-19 -31 -36 -56 -39 -56 -3 0 -20 25 -39 56 -48 79 -149 182 -239 244 -193
132 -321 244 -429 373 -43 52 -86 108 -96 125 l-18 31 821 0 821 0 -18 -31z"/>
<path d="M2504 2449 c-15 -16 -19 -36 -19 -89 0 -83 18 -110 75 -110 57 0 75
27 75 110 0 83 -18 110 -75 110 -25 0 -43 -7 -56 -21z"/>
<path d="M2504 2049 c-15 -16 -19 -36 -19 -89 0 -83 18 -110 75 -110 57 0 75
27 75 110 0 83 -18 110 -75 110 -25 0 -43 -7 -56 -21z"/>
</g>
</svg>
