<?xml version="1.0" standalone="no"?>
<!DOCTYPE svg PUBLIC "-//W3C//DTD SVG 20010904//EN"
 "http://www.w3.org/TR/2001/REC-SVG-20010904/DTD/svg10.dtd">
<svg version="1.0" xmlns="http://www.w3.org/2000/svg"
 width="512.000000pt" height="512.000000pt" viewBox="0 0 512.000000 512.000000"
 preserveAspectRatio="xMidYMid meet">

<g transform="translate(0.000000,512.000000) scale(0.100000,-0.100000)"
fill="#000000" stroke="none">
<path d="M1555 4599 c-522 -286 -959 -529 -970 -540 -20 -19 -20 -33 -20 -807
0 -849 1 -872 55 -1142 161 -804 684 -1507 1410 -1893 133 -71 466 -217 494
-217 33 1 467 192 590 261 254 142 443 287 646 495 421 431 676 952 766 1564
15 99 18 228 21 912 l4 796 -28 30 c-35 37 -1959 1062 -1994 1062 -13 0 -451
-234 -974 -521z m1895 -173 l905 -483 0 -739 c-1 -716 -1 -743 -23 -883 -87
-553 -319 -1027 -691 -1413 -273 -283 -526 -453 -942 -632 l-176 -76 -144 64
c-257 113 -411 199 -581 326 -525 391 -889 977 -1002 1610 -38 216 -41 281
-41 1018 l0 724 880 483 c484 266 887 484 895 484 8 0 422 -217 920 -483z"/>
<path d="M3298 3037 c-57 -46 -311 -253 -566 -460 l-463 -377 -211 247 c-253
298 -257 303 -304 303 -48 0 -73 -15 -90 -56 -12 -29 -12 -39 0 -66 18 -44
520 -629 554 -647 18 -10 35 -11 59 -5 34 9 1226 973 1244 1005 31 59 -18 139
-85 139 -30 0 -53 -14 -138 -83z"/>
</g>
</svg>
