<?xml version="1.0" standalone="no"?>
<!DOCTYPE svg PUBLIC "-//W3C//DTD SVG 20010904//EN"
 "http://www.w3.org/TR/2001/REC-SVG-20010904/DTD/svg10.dtd">
<svg version="1.0" xmlns="http://www.w3.org/2000/svg"
 width="512.000000pt" height="512.000000pt" viewBox="0 0 512.000000 512.000000"
 preserveAspectRatio="xMidYMid meet">

<g transform="translate(0.000000,512.000000) scale(0.100000,-0.100000)"
fill="#000000" stroke="none">
<path d="M1135 5109 c-267 -41 -462 -204 -541 -454 -45 -142 -54 -241 -54
-595 0 -370 3 -386 76 -431 38 -23 45 -24 294 -27 140 -2 283 -1 317 3 72 8
117 34 147 85 20 33 21 51 21 315 0 264 -1 282 -21 315 -11 19 -35 45 -54 57
-29 21 -45 23 -148 23 l-114 0 6 38 c10 57 49 125 85 149 18 12 56 27 85 33
34 7 62 20 77 36 24 25 24 29 24 215 l0 189 -26 26 c-31 31 -82 38 -174 23z
m5 -253 l0 -53 -45 -18 c-25 -9 -69 -38 -98 -65 -85 -78 -130 -190 -142 -353
-11 -144 20 -167 218 -167 l127 0 0 -195 0 -195 -231 0 -231 0 4 328 c4 292 7
335 26 404 51 185 150 298 310 349 31 10 58 18 60 18 1 1 2 -23 2 -53z"/>
<path d="M2158 5109 c-31 -4 -92 -20 -135 -34 -270 -91 -418 -304 -453 -654
-13 -131 -13 -655 0 -700 11 -40 42 -76 85 -99 25 -14 72 -17 302 -20 311 -4
363 2 411 50 50 48 54 76 50 375 -3 257 -4 273 -24 300 -46 62 -76 73 -201 73
l-114 0 7 38 c10 58 47 125 83 149 18 12 56 27 84 33 101 21 107 35 107 250 0
142 -3 177 -17 200 -29 49 -64 57 -185 39z m2 -252 c0 -53 -1 -54 -37 -69
-138 -56 -222 -194 -243 -397 -9 -82 -8 -99 7 -130 24 -49 62 -60 211 -60
l122 -1 0 -195 0 -195 -230 0 -230 0 0 263 c0 363 20 498 91 623 32 57 108
133 160 160 26 13 120 48 147 53 1 1 2 -23 2 -52z"/>
<path d="M2729 4325 c-33 -18 -53 -65 -44 -103 15 -72 107 -102 159 -53 87 81
-10 213 -115 156z"/>
<path d="M3168 4325 c-79 -45 -57 -165 33 -179 19 -3 102 -7 184 -10 264 -8
443 -54 678 -173 178 -91 330 -209 464 -362 559 -639 512 -1602 -108 -2185
-192 -181 -398 -296 -661 -371 -181 -52 -168 -21 -168 -395 l0 -304 -317 315
c-259 257 -324 317 -352 323 -18 3 -313 6 -655 6 -657 0 -703 3 -886 50 -557
142 -998 593 -1134 1158 -86 355 -44 728 118 1063 25 53 46 108 46 123 0 14
-13 40 -29 58 -24 27 -36 33 -69 33 -57 0 -76 -22 -138 -150 -234 -490 -230
-1062 14 -1550 85 -171 187 -313 325 -454 275 -280 630 -459 1020 -515 88 -13
218 -16 715 -16 l607 0 380 -381 c209 -209 393 -387 409 -396 40 -21 89 -10
120 28 l26 31 0 386 0 387 68 19 c97 27 279 107 378 166 752 442 1072 1346
766 2167 -174 463 -560 848 -1035 1029 -191 73 -349 102 -592 109 -152 5 -184
3 -207 -10z"/>
<path d="M1304 3339 c-47 -14 -69 -44 -69 -96 0 -55 33 -89 97 -98 24 -3 593
-5 1265 -3 l1222 3 28 21 c54 41 53 124 -4 161 -26 17 -91 18 -1268 20 -713 1
-1253 -2 -1271 -8z"/>
<path d="M1281 2796 c-56 -31 -66 -99 -22 -148 l29 -33 1272 0 1272 0 29 33
c44 49 34 119 -22 148 -40 20 -2521 21 -2558 0z"/>
<path d="M1294 2270 c-30 -12 -64 -58 -64 -87 0 -36 25 -78 55 -91 20 -9 328
-12 1276 -12 1359 0 1291 -3 1317 55 19 41 14 72 -17 107 l-29 33 -1259 2
c-692 1 -1268 -2 -1279 -7z"/>
<path d="M2453 1739 c-42 -12 -73 -53 -73 -96 0 -48 43 -89 101 -98 24 -3 334
-5 689 -3 602 3 648 4 673 21 57 37 58 120 4 161 -28 21 -35 21 -695 23 -391
1 -680 -2 -699 -8z"/>
<path d="M1847 1715 c-64 -65 -23 -165 68 -165 90 0 132 100 68 164 -36 36
-100 36 -136 1z"/>
</g>
</svg>
