<?xml version="1.0" encoding="UTF-8"?>
<!DOCTYPE svg PUBLIC "-//W3C//DTD SVG 1.1//EN" "http://www.w3.org/Graphics/SVG/1.1/DTD/svg11.dtd">
<svg xmlns="http://www.w3.org/2000/svg" version="1.1" width="512px" height="512px" style="shape-rendering:geometricPrecision; text-rendering:geometricPrecision; image-rendering:optimizeQuality; fill-rule:evenodd; clip-rule:evenodd" xmlns:xlink="http://www.w3.org/1999/xlink">
<g><path style="opacity:0.961" fill="#000000" d="M 236.5,-0.5 C 249.167,-0.5 261.833,-0.5 274.5,-0.5C 345.918,9.79056 395.752,48.1239 424,114.5C 438.578,155.918 439.245,197.585 426,239.5C 410.285,287.26 388.951,332.26 362,374.5C 333.033,420.77 301.366,465.104 267,507.5C 264.985,508.697 263.151,510.03 261.5,511.5C 257.5,511.5 253.5,511.5 249.5,511.5C 242.549,505.709 236.382,499.043 231,491.5C 188.361,437.59 150.694,380.257 118,319.5C 99.7183,284.989 86.385,248.656 78,210.5C 67.6072,127.56 97.7739,64.3933 168.5,21C 190.046,9.87167 212.712,2.705 236.5,-0.5 Z M 253.5,29.5 C 319.537,32.5724 366.37,63.9057 394,123.5C 407.279,159.221 407.946,195.221 396,231.5C 380.733,276.364 360.4,318.697 335,358.5C 310.699,397.452 284.199,434.786 255.5,470.5C 215.525,420.656 180.025,367.656 149,311.5C 129.706,276.916 116.04,240.249 108,201.5C 101.443,142.143 121.61,94.3093 168.5,58C 194.113,40.1848 222.446,30.6848 253.5,29.5 Z M 251.5,119.5 C 284.96,120.466 305.793,137.133 314,169.5C 316.943,201.795 303.443,223.961 273.5,236C 239.646,243.322 215.146,231.489 200,200.5C 190.226,164.219 202.392,138.386 236.5,123C 241.596,121.64 246.596,120.474 251.5,119.5 Z"/></g>
<g><path style="opacity:0.964" fill="#000000" d="M 254.5,58.5 C 260.758,58.7098 265.591,61.3765 269,66.5C 270.435,74.3888 270.935,82.3888 270.5,90.5C 311.043,98.7095 335.71,123.043 344.5,163.5C 350.509,163.334 356.509,163.501 362.5,164C 375.083,168.048 378.583,176.215 373,188.5C 371.062,191.106 368.562,192.939 365.5,194C 358.508,194.5 351.508,194.666 344.5,194.5C 337.913,227.836 318.913,251.003 287.5,264C 281.944,265.972 276.278,267.472 270.5,268.5C 270.666,275.508 270.5,282.508 270,289.5C 264.705,299.723 256.872,302.223 246.5,297C 243.894,295.062 242.061,292.562 241,289.5C 240.5,282.508 240.334,275.508 240.5,268.5C 208.704,261.87 185.87,243.87 172,214.5C 169.447,208.011 167.614,201.345 166.5,194.5C 159.492,194.666 152.492,194.5 145.5,194C 135.846,189.178 133.013,181.678 137,171.5C 139.755,167.423 143.588,164.923 148.5,164C 154.491,163.501 160.491,163.334 166.5,163.5C 175.29,123.043 199.957,98.7095 240.5,90.5C 240.334,83.1591 240.5,75.8258 241,68.5C 243.982,63.0048 248.482,59.6715 254.5,58.5 Z M 251.5,119.5 C 246.596,120.474 241.596,121.64 236.5,123C 202.392,138.386 190.226,164.219 200,200.5C 215.146,231.489 239.646,243.322 273.5,236C 303.443,223.961 316.943,201.795 314,169.5C 305.793,137.133 284.96,120.466 251.5,119.5 Z"/></g>
</svg>
