<?xml version="1.0" standalone="no"?>
<!DOCTYPE svg PUBLIC "-//W3C//DTD SVG 20010904//EN"
 "http://www.w3.org/TR/2001/REC-SVG-20010904/DTD/svg10.dtd">
<svg version="1.0" xmlns="http://www.w3.org/2000/svg"
 width="512.000000pt" height="512.000000pt" viewBox="0 0 512.000000 512.000000"
 preserveAspectRatio="xMidYMid meet">

<g transform="translate(0.000000,512.000000) scale(0.100000,-0.100000)"
fill="#000000" stroke="none">
<path d="M972 5104 c-113 -30 -210 -114 -264 -229 l-33 -70 0 -2245 0 -2245
32 -68 c57 -120 163 -208 284 -236 60 -14 3078 -14 3138 0 121 28 227 116 284
236 l32 68 0 1890 0 1890 -27 58 c-24 50 -86 117 -455 484 -350 347 -438 430
-483 452 l-55 26 -1200 2 c-1017 2 -1208 0 -1253 -13z m2398 -391 c0 -142 5
-287 10 -322 30 -179 174 -318 358 -342 37 -4 178 -8 315 -9 l247 0 0 -1828
c0 -1584 -2 -1835 -15 -1878 -18 -60 -72 -127 -129 -157 l-41 -22 -1555 0
-1555 0 -41 22 c-57 30 -111 97 -129 157 -13 43 -15 335 -15 2226 0 2419 -5
2241 67 2321 36 40 75 65 123 80 14 4 550 8 1193 8 l1167 1 0 -257z m793 -521
c-16 -2 -120 -2 -233 0 -229 5 -248 9 -320 75 -79 70 -85 94 -88 363 l-3 235
336 -335 c309 -309 333 -335 308 -338z"/>
<path d="M1162 3449 c-28 -14 -51 -36 -67 -64 l-25 -42 0 -1243 0 -1243 25
-43 c16 -28 39 -49 68 -63 l43 -21 1354 0 1354 0 43 21 c29 14 52 35 68 63
l25 43 0 1243 0 1243 -25 43 c-16 28 -39 49 -68 63 l-43 21 -1355 0 -1354 0
-43 -21z m398 -254 l0 -125 -170 0 -170 0 0 118 c0 65 3 122 7 125 3 4 80 7
170 7 l163 0 0 -125z m1850 -1095 l0 -1220 -850 0 -850 0 0 1220 0 1220 850 0
850 0 0 -1220z m488 1093 l3 -123 -171 0 -170 0 0 125 0 125 168 -2 167 -3 3
-122z m-2338 -423 l0 -150 -170 0 -170 0 0 150 0 150 170 0 170 0 0 -150z
m2340 0 l0 -150 -170 0 -170 0 0 150 0 150 170 0 170 0 0 -150z m-2340 -450
l0 -150 -170 0 -170 0 0 150 0 150 170 0 170 0 0 -150z m2340 0 l0 -150 -170
0 -170 0 0 150 0 150 170 0 170 0 0 -150z m-2340 -445 l0 -145 -170 0 -170 0
0 145 0 145 170 0 170 0 0 -145z m2340 0 l0 -145 -170 0 -170 0 0 145 0 145
170 0 170 0 0 -145z m-2340 -445 l0 -150 -170 0 -170 0 0 150 0 150 170 0 170
0 0 -150z m2340 0 l0 -150 -170 0 -170 0 0 150 0 150 170 0 170 0 0 -150z
m-2340 -425 l0 -125 -167 2 -168 3 -3 123 -3 122 171 0 170 0 0 -125z m2338 3
l-3 -123 -167 -3 -168 -2 0 125 0 125 170 0 171 0 -3 -122z"/>
<path d="M2399 2765 c-189 -46 -364 -186 -450 -359 -54 -110 -59 -147 -26
-180 51 -51 102 -27 137 63 115 298 460 427 750 281 108 -54 204 -163 250
-281 35 -90 86 -114 137 -63 33 33 28 70 -28 184 -34 68 -60 102 -128 170
-143 142 -287 201 -485 199 -56 0 -126 -7 -157 -14z"/>
<path d="M2414 2416 c-17 -8 -40 -26 -52 -41 -21 -27 -22 -37 -22 -275 0 -239
1 -248 22 -275 27 -35 80 -57 116 -49 15 4 105 58 199 120 215 141 243 179
193 262 -24 38 -347 256 -395 265 -17 4 -43 1 -61 -7z m194 -246 c56 -36 102
-67 102 -70 0 -6 -203 -140 -213 -140 -4 0 -7 63 -7 141 0 77 4 139 9 137 4
-1 54 -32 109 -68z"/>
<path d="M1923 1974 c-33 -33 -28 -70 28 -183 33 -66 60 -102 123 -165 144
-143 267 -197 462 -204 100 -3 134 0 200 18 182 49 352 186 433 351 56 113 61
150 28 183 -51 51 -102 27 -137 -63 -80 -207 -276 -341 -499 -341 -102 0 -167
16 -251 61 -115 61 -204 161 -250 280 -35 90 -86 114 -137 63z"/>
</g>
</svg>
